<svg id="Capa_1" data-name="Capa 1" xmlns="http://www.w3.org/2000/svg" xmlns:xlink="http://www.w3.org/1999/xlink" viewBox="0 0 1080 540"><defs><style>.cls-1{fill:url(#Degradado_sin_nombre_35);}.cls-2{fill:url(#Degradado_sin_nombre_7);}.cls-3{fill:url(#Degradado_sin_nombre_31);}.cls-4{fill:url(#Degradado_sin_nombre_35-2);}.cls-5{fill:url(#Degradado_sin_nombre_7-2);}.cls-6{fill:url(#Degradado_sin_nombre_31-2);}.cls-7{fill:url(#Degradado_sin_nombre_35-3);}.cls-8{fill:url(#Degradado_sin_nombre_7-3);}.cls-9{fill:url(#Degradado_sin_nombre_31-3);}.cls-10{fill:url(#Degradado_sin_nombre_35-4);}.cls-11{fill:url(#Degradado_sin_nombre_7-4);}.cls-12{fill:url(#Degradado_sin_nombre_31-4);}.cls-13{fill:#ffb3c1;}</style><linearGradient id="Degradado_sin_nombre_35" x1="-464.15" y1="-378.38" x2="-464.15" y2="-438.36" gradientTransform="matrix(0.89, 0.45, -0.45, 0.89, 560.63, 843.17)" gradientUnits="userSpaceOnUse"><stop offset="0" stop-color="#ffb3c1"/><stop offset="0.38" stop-color="#ffb9c6"/><stop offset="0.89" stop-color="#ffc9d3"/><stop offset="0.95" stop-color="#ffccd5"/></linearGradient><linearGradient id="Degradado_sin_nombre_7" x1="-469.66" y1="-378.35" x2="-469.66" y2="-421.1" gradientTransform="matrix(0.89, 0.45, -0.45, 0.89, 560.63, 843.17)" gradientUnits="userSpaceOnUse"><stop offset="0" stop-color="#c9184a"/><stop offset="0.14" stop-color="#cd1e4f"/><stop offset="0.34" stop-color="#d72f5b"/><stop offset="0.56" stop-color="#e74c71"/><stop offset="0.81" stop-color="#fe738e"/><stop offset="0.82" stop-color="#ff758f"/></linearGradient><linearGradient id="Degradado_sin_nombre_31" x1="-469.96" y1="-384.93" x2="-480.09" y2="-402.47" gradientTransform="matrix(0.89, 0.45, -0.45, 0.89, 560.63, 843.17)" gradientUnits="userSpaceOnUse"><stop offset="0.22" stop-color="#590d22"/><stop offset="0.46" stop-color="#5f0d24"/><stop offset="0.78" stop-color="#700e2a"/><stop offset="1" stop-color="#800f2f"/></linearGradient><linearGradient id="Degradado_sin_nombre_35-2" x1="-460" y1="-355.23" x2="-460" y2="-390.23" gradientTransform="translate(560.25 843.08) rotate(26.94)" xlink:href="#Degradado_sin_nombre_35"/><linearGradient id="Degradado_sin_nombre_7-2" x1="-466.13" y1="-360.97" x2="-466.13" y2="-385.91" gradientTransform="translate(560.25 843.08) rotate(26.94)" xlink:href="#Degradado_sin_nombre_7"/><linearGradient id="Degradado_sin_nombre_31-2" x1="-463.69" y1="-364.43" x2="-472.59" y2="-379.85" gradientTransform="translate(560.25 843.08) rotate(26.94)" xlink:href="#Degradado_sin_nombre_31"/><linearGradient id="Degradado_sin_nombre_35-3" x1="-2801.61" y1="766.4" x2="-2801.61" y2="706.41" gradientTransform="matrix(-0.89, 0.45, 0.45, 0.89, -2562.54, 881.68)" xlink:href="#Degradado_sin_nombre_35"/><linearGradient id="Degradado_sin_nombre_7-3" x1="-2807.12" y1="766.42" x2="-2807.12" y2="723.67" gradientTransform="matrix(-0.89, 0.45, 0.45, 0.89, -2562.54, 881.68)" xlink:href="#Degradado_sin_nombre_7"/><linearGradient id="Degradado_sin_nombre_31-3" x1="-2807.42" y1="759.84" x2="-2817.55" y2="742.3" gradientTransform="matrix(-0.89, 0.45, 0.45, 0.89, -2562.54, 881.68)" xlink:href="#Degradado_sin_nombre_31"/><linearGradient id="Degradado_sin_nombre_35-4" x1="-2296.28" y1="525.54" x2="-2296.28" y2="490.54" gradientTransform="matrix(-0.89, 0.45, 0.45, 0.89, -1995.77, 889.9)" xlink:href="#Degradado_sin_nombre_35"/><linearGradient id="Degradado_sin_nombre_7-4" x1="-2302.42" y1="519.8" x2="-2302.42" y2="494.86" gradientTransform="matrix(-0.89, 0.45, 0.45, 0.89, -1995.77, 889.9)" xlink:href="#Degradado_sin_nombre_7"/><linearGradient id="Degradado_sin_nombre_31-4" x1="-2299.97" y1="516.35" x2="-2308.88" y2="500.92" gradientTransform="matrix(-0.89, 0.45, 0.45, 0.89, -1995.77, 889.9)" xlink:href="#Degradado_sin_nombre_31"/></defs><path class="cls-1" d="M301.16,286.85h37.13a12.06,12.06,0,0,0,10.41-6A76.82,76.82,0,0,0,358,258.05c4.54-20.12-20.39-11.57-35.14.55C314.3,265.61,302.73,274.15,301.16,286.85Z"/><path class="cls-2" d="M301.16,286.87h26.46a8.56,8.56,0,0,0,7.41-4.25,54.26,54.26,0,0,0,6.61-16.27c3.24-14.33-14.53-8.24-25,.4C310.52,271.74,302.28,277.83,301.16,286.87Z"/><path class="cls-3" d="M301.16,286.86h18.72a6.07,6.07,0,0,0,5.25-3,38.21,38.21,0,0,0,4.67-11.51c2.3-10.14-10.28-5.83-17.71.28C307.79,276.16,302,280.46,301.16,286.86Z"/><path class="cls-4" d="M301.16,291c.89,8.18,5.87,17.93,17.57,29.77,7.92,7.92,13.23,3.17,15.43-1.51s4.82-9.1,6.34-16.13-.55-12.4-9-12.26C324.78,291,307.63,291,301.16,291Z"/><path class="cls-5" d="M301.16,290.86c.63,5.83,4.18,12.77,12.52,21.21,5.64,5.64,9.42,2.26,11-1.08s3.44-6.48,4.52-11.49-.39-8.84-6.38-8.74C318,290.84,305.77,290.86,301.16,290.86Z"/><path class="cls-6" d="M301.16,290.86c.45,4.12,3,9,8.86,15,4,4,6.67,1.6,7.78-.77A33.41,33.41,0,0,0,321,297c.77-3.55-.27-6.26-4.51-6.19C313.07,290.85,304.42,290.86,301.16,290.86Z"/><path class="cls-7" d="M299.37,286.82H262.25a12,12,0,0,1-10.41-6A76.44,76.44,0,0,1,242.57,258c-4.55-20.11,20.39-11.57,35.13.55C286.23,265.59,297.8,274.12,299.37,286.82Z"/><path class="cls-8" d="M299.37,286.85H272.92a8.58,8.58,0,0,1-7.42-4.26,54.71,54.71,0,0,1-6.61-16.26c-3.24-14.34,14.53-8.25,25,.39C290,271.72,298.25,277.8,299.37,286.85Z"/><path class="cls-9" d="M299.37,286.84H280.65a6.07,6.07,0,0,1-5.25-3,38.86,38.86,0,0,1-4.67-11.51c-2.29-10.15,10.28-5.84,17.71.28C292.75,276.13,298.58,280.44,299.37,286.84Z"/><path class="cls-10" d="M299.37,291c-.89,8.18-5.87,17.93-17.57,29.77-7.92,7.92-13.22,3.17-15.43-1.51s-4.82-9.1-6.34-16.13.55-12.4,9-12.26C275.75,291,292.9,291,299.37,291Z"/><path class="cls-11" d="M299.37,290.86c-.63,5.83-4.18,12.77-12.52,21.21-5.64,5.64-9.42,2.26-11-1.08s-3.44-6.48-4.52-11.49.39-8.84,6.38-8.74C282.54,290.84,294.76,290.86,299.37,290.86Z"/><path class="cls-12" d="M299.37,290.86c-.45,4.12-2.95,9-8.85,15-4,4-6.67,1.6-7.78-.77a33,33,0,0,1-3.2-8.12c-.77-3.55.28-6.26,4.52-6.19C287.46,290.85,296.11,290.86,299.37,290.86Z"/><path class="cls-13" d="M762.6,255.52c4.26,4.39,5.18,10.21,5.18,20.34v39.49c0,4.68.78,6.45,3.12,6.45,2.05,0,3.69-1.2,5.32-2.48l1.48,2.48c-4.39,3.55-9.21,5.32-16.58,5.32-10.64,0-13.9-5.53-14-11.77a24.53,24.53,0,0,1-21.41,11.77c-10.85,0-18.36-5.95-18.36-16.52s7-16.37,20.42-21.34c10.7-4,19.07-6.8,19.07-13V264.88c0-7.59-3.27-13-11.84-13-3.48,0-7.73,1-10.35,3.55,5.17,1.77,8.57,5.53,8.57,11.41s-4.67,10.42-11.83,10.42c-6.31,0-10.28-4.82-10.28-11.2,0-5.32,3.4-9.36,8.15-12.12,5.17-2.91,12.26-5,22.05-5C750.69,249,757.93,250.7,762.6,255.52Zm-15.73,26.65c-1.35,2.2-4.12,4.12-9,7.16-5.1,3.76-9.85,8.51-9.85,17.23,0,8,3.9,11.27,9.07,11.27,3.55,0,6.74-1.56,9.79-5.88Z"/><path class="cls-13" d="M790,229.93V287.1H810.8V272.18c0-9.86,6.45-16.8,14.46-16.8,7.23,0,8.93,4.89,8.93,12.12v19.6H855.1V273.52c0-9.85-1.34-15.17-4.53-18.85-3-3.41-7.73-5.67-16-5.67-10.2,0-18.92,3.61-23.74,13.46v-49.9a94.23,94.23,0,0,1-21.2,2c-2.84,0-5.89-.14-8.93-.42v3C787.68,217.16,790,221.28,790,229.93Z"/><path class="cls-13" d="M810.8,312.66V290.24H790v22.42c0,8.08-2.55,10.42-9.28,10.42v3.05c3.82-.14,12.54-.57,20-.57,7.09,0,14.6.43,18,.57v-3.05C812.92,323.08,810.8,320.74,810.8,312.66Z"/><path class="cls-13" d="M855.1,312.66V290.24H834.19v22.42c0,8.08-2.06,10.42-7.8,10.42v3.05c3.55-.14,11.42-.57,18.86-.57,7.09,0,15.45.43,19.14.57v-3.05C857.66,323.08,855.1,320.74,855.1,312.66Z"/><path class="cls-13" d="M394.67,251.21c-9.29,0-18-.14-22.9-.42v2.9c9.14.43,10.85,1.92,10.85,12.48V287.1h23.11V266.17c0-10.56,1.63-12.05,10.91-12.48v-2.9C411.4,251.07,402.75,251.21,394.67,251.21Z"/><path class="cls-13" d="M405.73,310.74v-20.5H382.62v20.5c0,10.57-1.63,12.06-10.85,12.48v2.91c4.89-.29,13.61-.43,22.9-.43,8.08,0,16.73.14,22,.43v-2.91C407.43,322.8,405.73,321.31,405.73,310.74Z"/><path class="cls-13" d="M627.36,266.86V287.1h20.91V272.18c0-9.57,6.24-16.8,14.39-16.8,7.23,0,8.93,4.89,8.93,12.12v19.6h20.92V273.52c0-9.85-1.35-15.17-4.54-18.85-3-3.41-7.73-5.67-16-5.67-10.21,0-18.86,3.68-23.68,13.54V249.42a94.14,94.14,0,0,1-21.2,2.06c-2.9,0-6-.22-9-.5V254C625.09,254,627.36,258.14,627.36,266.86Z"/><path class="cls-13" d="M648.27,312.66V290.24H627.36v22.42c0,8.08-2.56,10.42-9.29,10.42v3.05c3.83-.14,12.55-.57,20-.57,7.09,0,14.61.43,18,.57v-3.05C650.33,323.08,648.27,320.74,648.27,312.66Z"/><path class="cls-13" d="M692.51,312.66V290.24H671.59v22.42c0,8.08-2.05,10.42-7.79,10.42v3.05c3.54-.14,11.41-.57,18.85-.57,7.09,0,15.46.43,19.14.57v-3.05C695.06,323.08,692.51,320.74,692.51,312.66Z"/><path class="cls-13" d="M587.59,290.24c-.23,24.84-5.9,35-13.67,35s-13.36-10.2-13.6-35H538.43c.55,27.56,15.05,37.94,35.49,37.94s35-10.38,35.56-37.94Z"/><path class="cls-13" d="M560.32,287.1c.22-24.84,5.89-35.2,13.6-35.2s13.45,10.36,13.67,35.2h21.89c-.52-27.57-15-38.1-35.56-38.1s-35,10.53-35.49,38.1Z"/><path class="cls-13" d="M504.38,290.24c-2.48,22-11.35,34.14-31.56,34.14-9,0-10.92-2.34-10.92-12.48V239.31c0-10,1.92-12.48,10.78-12.48,23.4,0,32.47,15.67,32.47,48.21,0,4.28-.15,8.29-.46,12.06H528a62.61,62.61,0,0,0,1.25-12.63c0-32.4-18.22-50.27-56.43-50.27-5.81,0-15.88.29-22.83.43-1.48,0-3,.07-4.53.07-6.81,0-13.54-.28-17.51-.5v2.91c9.14.43,10.84,1.92,10.84,12.48v72c0,10.56-1.63,12.05-10.84,12.47V327c4.89-.28,13.75-.42,22.33-.42,6.52,0,16.66.42,21.19.42,30,0,49.73-14.15,55.79-36.76Z"/></svg>