<?xml version="1.0" encoding="UTF-8" standalone="no"?>
<svg
   id="Capa_1"
   data-name="Capa 1"
   viewBox="0 0 1080 540"
   version="1.1"
   sodipodi:docname="idonah-logo-main-C9184A.svg"
   inkscape:version="1.3.2 (091e20e, 2023-11-25, custom)"
   xmlns:inkscape="http://www.inkscape.org/namespaces/inkscape"
   xmlns:sodipodi="http://sodipodi.sourceforge.net/DTD/sodipodi-0.dtd"
   xmlns:xlink="http://www.w3.org/1999/xlink"
   xmlns="http://www.w3.org/2000/svg"
   xmlns:svg="http://www.w3.org/2000/svg">
  <sodipodi:namedview
     id="namedview37"
     pagecolor="#ffffff"
     bordercolor="#000000"
     borderopacity="0.25"
     inkscape:showpageshadow="2"
     inkscape:pageopacity="0.0"
     inkscape:pagecheckerboard="0"
     inkscape:deskcolor="#d1d1d1"
     showgrid="false"
     inkscape:zoom="1.7055556"
     inkscape:cx="540"
     inkscape:cy="270"
     inkscape:window-width="2400"
     inkscape:window-height="1271"
     inkscape:window-x="3741"
     inkscape:window-y="-9"
     inkscape:window-maximized="1"
     inkscape:current-layer="Capa_1" />
  <defs
     id="defs14">
    <style
       id="style1">.cls-1{fill:url(#Degradado_sin_nombre_35);}.cls-2{fill:url(#Degradado_sin_nombre_7);}.cls-3{fill:url(#Degradado_sin_nombre_31);}.cls-4{fill:url(#Degradado_sin_nombre_35-2);}.cls-5{fill:url(#Degradado_sin_nombre_7-2);}.cls-6{fill:url(#Degradado_sin_nombre_31-2);}.cls-7{fill:url(#Degradado_sin_nombre_35-3);}.cls-8{fill:url(#Degradado_sin_nombre_7-3);}.cls-9{fill:url(#Degradado_sin_nombre_31-3);}.cls-10{fill:url(#Degradado_sin_nombre_35-4);}.cls-11{fill:url(#Degradado_sin_nombre_7-4);}.cls-12{fill:url(#Degradado_sin_nombre_31-4);}.cls-13{fill:#ffb3c1;}</style>
    <linearGradient
       id="Degradado_sin_nombre_35"
       x1="-363.63"
       y1="111.98"
       x2="-363.63"
       y2="72.76"
       gradientTransform="matrix(0.89, 0.45, -0.45, 0.89, 695.17, 281.49)"
       gradientUnits="userSpaceOnUse">
      <stop
         offset="0"
         stop-color="#ffb3c1"
         id="stop1" />
      <stop
         offset="0.38"
         stop-color="#ffb9c6"
         id="stop2" />
      <stop
         offset="0.89"
         stop-color="#ffc9d3"
         id="stop3" />
      <stop
         offset="0.95"
         stop-color="#ffccd5"
         id="stop4" />
    </linearGradient>
    <linearGradient
       id="Degradado_sin_nombre_7"
       x1="-367.23"
       y1="112"
       x2="-367.23"
       y2="84.05"
       gradientTransform="matrix(0.89, 0.45, -0.45, 0.89, 695.17, 281.49)"
       gradientUnits="userSpaceOnUse">
      <stop
         offset="0"
         stop-color="#c9184a"
         id="stop5" />
      <stop
         offset="0.14"
         stop-color="#cd1e4f"
         id="stop6" />
      <stop
         offset="0.34"
         stop-color="#d72f5b"
         id="stop7" />
      <stop
         offset="0.56"
         stop-color="#e74c71"
         id="stop8" />
      <stop
         offset="0.81"
         stop-color="#fe738e"
         id="stop9" />
      <stop
         offset="0.82"
         stop-color="#ff758f"
         id="stop10" />
    </linearGradient>
    <linearGradient
       id="Degradado_sin_nombre_31"
       x1="-367.43"
       y1="107.69"
       x2="-374.05"
       y2="96.22"
       gradientTransform="matrix(0.89, 0.45, -0.45, 0.89, 695.17, 281.49)"
       gradientUnits="userSpaceOnUse">
      <stop
         offset="0.22"
         stop-color="#590d22"
         id="stop11" />
      <stop
         offset="0.46"
         stop-color="#5f0d24"
         id="stop12" />
      <stop
         offset="0.78"
         stop-color="#700e2a"
         id="stop13" />
      <stop
         offset="1"
         stop-color="#800f2f"
         id="stop14" />
    </linearGradient>
    <linearGradient
       id="Degradado_sin_nombre_35-2"
       x1="-360.79"
       y1="127.08"
       x2="-360.79"
       y2="104.2"
       gradientTransform="translate(694.8 281.41) rotate(26.94)"
       xlink:href="#Degradado_sin_nombre_35" />
    <linearGradient
       id="Degradado_sin_nombre_7-2"
       x1="-364.8"
       y1="123.33"
       x2="-364.8"
       y2="107.02"
       gradientTransform="translate(694.8 281.41) rotate(26.94)"
       xlink:href="#Degradado_sin_nombre_7" />
    <linearGradient
       id="Degradado_sin_nombre_31-2"
       x1="-363.2"
       y1="121.07"
       x2="-369.02"
       y2="110.98"
       gradientTransform="translate(694.8 281.41) rotate(26.94)"
       xlink:href="#Degradado_sin_nombre_31" />
    <linearGradient
       id="Degradado_sin_nombre_35-3"
       x1="-505.52"
       y1="140.87"
       x2="-505.52"
       y2="101.65"
       gradientTransform="matrix(-0.89, 0.45, 0.45, 0.89, -217.78, 320.01)"
       xlink:href="#Degradado_sin_nombre_35" />
    <linearGradient
       id="Degradado_sin_nombre_7-3"
       x1="-509.13"
       y1="140.88"
       x2="-509.13"
       y2="112.93"
       gradientTransform="matrix(-0.89, 0.45, 0.45, 0.89, -217.78, 320.01)"
       xlink:href="#Degradado_sin_nombre_7" />
    <linearGradient
       id="Degradado_sin_nombre_31-3"
       x1="-509.32"
       y1="136.58"
       x2="-515.94"
       y2="125.11"
       gradientTransform="matrix(-0.89, 0.45, 0.45, 0.89, -217.78, 320.01)"
       xlink:href="#Degradado_sin_nombre_31" />
    <linearGradient
       id="Degradado_sin_nombre_35-4"
       x1="-1.51"
       y1="-108.04"
       x2="-1.51"
       y2="-130.93"
       gradientTransform="matrix(-0.89, 0.45, 0.45, 0.89, 348.99, 328.23)"
       xlink:href="#Degradado_sin_nombre_35" />
    <linearGradient
       id="Degradado_sin_nombre_7-4"
       x1="-5.52"
       y1="-111.8"
       x2="-5.52"
       y2="-128.1"
       gradientTransform="matrix(-0.89, 0.45, 0.45, 0.89, 348.99, 328.23)"
       xlink:href="#Degradado_sin_nombre_7" />
    <linearGradient
       id="Degradado_sin_nombre_31-4"
       x1="-3.92"
       y1="-114.06"
       x2="-9.75"
       y2="-124.14"
       gradientTransform="matrix(-0.89, 0.45, 0.45, 0.89, 348.99, 328.23)"
       xlink:href="#Degradado_sin_nombre_31" />
  </defs>
  <path
     class="cls-1"
     d="M309.07,210.87h24.27a7.88,7.88,0,0,0,6.81-3.9A50.36,50.36,0,0,0,346.21,192c3-13.15-13.33-7.57-23,.36C317.66,197,310.09,202.57,309.07,210.87Z"
     id="path14" />
  <path
     class="cls-2"
     d="M309.07,210.89h17.3a5.63,5.63,0,0,0,4.85-2.78,35.85,35.85,0,0,0,4.31-10.64c2.12-9.37-9.5-5.39-16.36.26C315.19,201,309.8,205,309.07,210.89Z"
     id="path15" />
  <path
     class="cls-3"
     d="M309.07,210.88h12.24a4,4,0,0,0,3.43-2,25.29,25.29,0,0,0,3.06-7.52c1.49-6.63-6.73-3.82-11.59.18C313.4,203.88,309.59,206.7,309.07,210.88Z"
     id="path16" />
  <path
     class="cls-4"
     d="M309.07,213.59c.58,5.35,3.84,11.72,11.49,19.46,5.17,5.18,8.64,2.07,10.08-1s3.16-5.95,4.15-10.54-.36-8.11-5.86-8C324.51,213.57,313.3,213.59,309.07,213.59Z"
     id="path17" />
  <path
     class="cls-5"
     d="M309.07,213.49c.41,3.81,2.73,8.35,8.18,13.87,3.69,3.69,6.16,1.48,7.19-.7a30.76,30.76,0,0,0,2.95-7.52c.71-3.27-.25-5.77-4.17-5.71C320.07,213.48,312.08,213.49,309.07,213.49Z"
     id="path18" />
  <path
     class="cls-6"
     d="M309.07,213.49c.29,2.7,1.93,5.91,5.79,9.82,2.61,2.61,4.36,1,5.09-.5a22.33,22.33,0,0,0,2.09-5.32c.5-2.31-.19-4.09-3-4C316.85,213.49,311.2,213.49,309.07,213.49Z"
     id="path19" />
  <path
     class="cls-7"
     d="M307.9,210.85H283.63a7.87,7.87,0,0,1-6.81-3.9A50.09,50.09,0,0,1,270.76,192c-3-13.15,13.33-7.56,23,.36C299.31,197,306.87,202.55,307.9,210.85Z"
     id="path20" />
  <path
     class="cls-8"
     d="M307.9,210.87H290.6a5.63,5.63,0,0,1-4.85-2.78,36,36,0,0,1-4.32-10.64c-2.11-9.37,9.5-5.39,16.37.26C301.78,201,307.17,205,307.9,210.87Z"
     id="path21" />
  <path
     class="cls-9"
     d="M307.9,210.86H295.66a4,4,0,0,1-3.43-2,25.37,25.37,0,0,1-3.06-7.53c-1.5-6.63,6.72-3.81,11.58.18C303.57,203.86,307.38,206.68,307.9,210.86Z"
     id="path22" />
  <path
     class="cls-10"
     d="M307.9,213.59c-.58,5.35-3.84,11.72-11.49,19.46-5.18,5.18-8.65,2.07-10.09-1s-3.15-5.95-4.14-10.54.36-8.11,5.86-8C292.45,213.57,303.67,213.59,307.9,213.59Z"
     id="path23" />
  <path
     class="cls-11"
     d="M307.9,213.49c-.42,3.81-2.73,8.35-8.18,13.87-3.69,3.69-6.17,1.48-7.19-.7a31.15,31.15,0,0,1-3-7.52c-.7-3.27.26-5.77,4.18-5.71C296.9,213.48,304.89,213.49,307.9,213.49Z"
     id="path24" />
  <path
     class="cls-12"
     d="M307.9,213.49c-.29,2.7-1.93,5.91-5.79,9.82-2.61,2.61-4.36,1-5.09-.5a22.33,22.33,0,0,1-2.09-5.32c-.5-2.31.18-4.09,2.95-4C300.11,213.49,305.77,213.49,307.9,213.49Z"
     id="path25" />
  <path
     class="cls-13"
     d="M724.29,255.73c4.8,5,5.84,11.52,5.84,23v44.57c0,5.28.88,7.28,3.52,7.28,2.32,0,4.16-1.36,6-2.8l1.68,2.8c-5,4-10.4,6-18.72,6-12,0-15.68-6.24-15.76-13.28a27.69,27.69,0,0,1-24.17,13.28c-12.24,0-20.72-6.72-20.72-18.64s7.84-18.49,23-24.09c12.09-4.56,21.53-7.68,21.53-14.72v-12.8c0-8.56-3.68-14.65-13.37-14.65-3.92,0-8.72,1.12-11.68,4,5.84,2,9.68,6.24,9.68,12.88,0,6.8-5.28,11.76-13.36,11.76-7.12,0-11.6-5.44-11.6-12.64,0-6,3.84-10.56,9.2-13.68,5.84-3.29,13.84-5.61,24.89-5.61C710.85,248.36,719,250.28,724.29,255.73Zm-17.76,30.08c-1.52,2.48-4.64,4.64-10.17,8.08-5.76,4.24-11.12,9.61-11.12,19.45,0,9,4.4,12.72,10.24,12.72,4,0,7.61-1.76,11-6.64Z"
     id="path26" />
  <path
     class="cls-13"
     d="M755.16,226.84v64.53h23.52V274.53c0-11.12,7.29-19,16.33-19,8.16,0,10.08,5.52,10.08,13.68v22.12h23.6V276.05c0-11.12-1.52-17.12-5.12-21.28-3.36-3.85-8.72-6.41-18.08-6.41-11.52,0-21.36,4.08-26.81,15.21V207.24c-6.8,1.6-14.72,2.24-23.92,2.24-3.2,0-6.64-.16-10.08-.48v3.44C752.6,212.44,755.16,217.08,755.16,226.84Z"
     id="path27"
     style="fill:#c9184a;fill-opacity:1" />
  <path
     class="cls-13"
     d="M778.68,320.22v-25.3H755.16v25.3c0,9.12-2.88,11.76-10.48,11.76v3.44c4.32-.16,14.16-.64,22.56-.64,8,0,16.49.48,20.33.64V332C781.08,332,778.68,329.34,778.68,320.22Z"
     id="path28" />
  <path
     class="cls-13"
     d="M828.69,320.22v-25.3h-23.6v25.3c0,9.12-2.32,11.76-8.8,11.76v3.44c4-.16,12.88-.64,21.28-.64,8,0,17.45.48,21.61.64V332C831.58,332,828.69,329.34,828.69,320.22Z"
     id="path29" />
  <path
     class="cls-13"
     d="M309,250.87c-10.48,0-20.32-.16-25.84-.48v3.28c10.32.48,12.24,2.16,12.24,14.08v23.62h26.09V267.75c0-11.92,1.84-13.6,12.32-14.08v-3.28C327.89,250.71,318.13,250.87,309,250.87Z"
     id="path30" />
  <path
     class="cls-13"
     d="M321.49,318.06V294.92H295.4v23.14c0,11.92-1.84,13.6-12.24,14.08v3.28c5.52-.32,15.36-.48,25.84-.48,9.13,0,18.89.16,24.81.48v-3.28C323.41,331.66,321.49,330,321.49,318.06Z"
     id="path31" />
  <path
     class="cls-13"
     d="M571.64,268.53v22.84h23.6V274.53c0-10.8,7-19,16.25-19,8.16,0,10.08,5.52,10.08,13.68v22.12h23.6V276.05c0-11.12-1.52-17.12-5.12-21.28-3.36-3.85-8.72-6.41-18.08-6.41-11.52,0-21.29,4.16-26.73,15.29V248.84a106.33,106.33,0,0,1-23.92,2.32c-3.28,0-6.72-.24-10.16-.56v3.45C569.08,254.05,571.64,258.69,571.64,268.53Z"
     id="path32" />
  <path
     class="cls-13"
     d="M595.24,320.22v-25.3h-23.6v25.3c0,9.12-2.88,11.76-10.48,11.76v3.44c4.32-.16,14.16-.64,22.56-.64,8,0,16.48.48,20.32.64V332C597.56,332,595.24,329.34,595.24,320.22Z"
     id="path33" />
  <path
     class="cls-13"
     d="M645.17,320.22v-25.3h-23.6v25.3c0,9.12-2.32,11.76-8.8,11.76v3.44c4-.16,12.88-.64,21.28-.64,8,0,17.44.48,21.61.64V332C648.05,332,645.17,329.34,645.17,320.22Z"
     id="path34" />
  <path
     class="cls-13"
     d="M526.76,294.92c-.27,28-6.66,39.54-15.44,39.54S496.24,323,496,294.92h-24.7c.61,31.11,17,42.82,40.05,42.82s39.53-11.71,40.14-42.82Z"
     id="path35" />
  <path
     class="cls-13"
     d="M496,291.37c.26-28,6.65-39.73,15.35-39.73s15.18,11.7,15.44,39.73h24.7c-.58-31.11-17-43-40.14-43s-39.47,11.9-40.06,43Z"
     id="path36" />
  <path
     class="cls-13"
     d="M432.84,294.92c-2.8,24.87-12.82,38.53-35.62,38.53-10.17,0-12.33-2.64-12.33-14.09V237.43c0-11.29,2.16-14.09,12.17-14.09,26.4,0,36.64,17.69,36.64,54.42q0,7.25-.52,13.61H459.5a71,71,0,0,0,1.41-14.25c0-36.57-20.57-56.74-63.69-56.74-6.57,0-17.93.32-25.77.48-1.68,0-3.44.08-5.12.08-7.68,0-15.28-.32-19.76-.56v3.28c10.32.48,12.24,2.16,12.24,14.09V319c0,11.93-1.84,13.61-12.24,14.09v3.28c5.52-.32,15.52-.48,25.2-.48,7.36,0,18.8.48,23.93.48,33.88,0,56.12-16,63-41.49Z"
     id="path37" />
  <path
     style="fill:#c9184a;fill-opacity:1;stroke-width:0.586319"
     d="m 745.21171,333.46906 c 10e-6,-1.01342 0.33705,-1.31922 1.45395,-1.31922 0.79966,0 2.54599,-0.43696 3.88072,-0.97101 1.86491,-0.74619 2.67918,-1.52676 3.5169,-3.37134 0.97101,-2.13805 1.09153,-4.05001 1.103,-17.49804 l 0.0129,-15.09772 h 11.72639 11.72638 v 15.26313 c 0,16.115 0.23878,17.82697 2.80517,20.11229 0.66443,0.59166 2.2839,1.22005 3.59884,1.39642 1.94351,0.26068 2.39078,0.55303 2.39076,1.56269 l -2e-5,1.24201 H 766.31919 745.2117 Z"
     id="path38" />
  <path
     style="fill:#c9184a;fill-opacity:1;stroke-width:0.586319"
     d="m 796.80784,333.46906 c -2e-5,-0.94906 0.34527,-1.31922 1.23059,-1.31922 2.3283,0 5.10496,-1.80136 6.17025,-4.00296 0.89479,-1.84924 1.07653,-4.32728 1.28666,-17.54427 l 0.2447,-15.39088 h 11.33717 11.33718 l 0.17391,15.39088 c 0.18802,16.6391 0.36288,17.64188 3.47827,19.94659 0.84997,0.62879 2.76284,1.28049 4.25082,1.4482 2.26966,0.25583 2.70541,0.50514 2.70542,1.54791 l 2e-5,1.24296 h -21.10749 -21.10748 z"
     id="path39" />
  <path
     style="fill:#c9184a;fill-opacity:1;stroke-width:0.586319"
     d="m 675.55548,335.34013 c -3.90652,-1.05141 -4.93198,-1.60455 -7.83222,-4.22475 -4.16531,-3.7631 -6.03512,-9.6288 -5.14957,-16.15446 1.36011,-10.02268 7.11902,-14.85485 26.95411,-22.61655 10.26269,-4.01591 14.11385,-6.20618 15.81327,-8.99348 1.0436,-1.71165 1.16944,-2.96148 1.1714,-11.63407 0.003,-11.40484 -0.62607,-14.0442 -4.09054,-17.17413 -2.59848,-2.34757 -7.39272,-3.62542 -11.32462,-3.01845 -3.9038,0.60264 -7.81074,2.01138 -8.8921,3.20627 -0.94914,1.04879 -0.89683,1.1454 1.14499,2.1143 2.72422,1.29273 5.51714,4.079 6.53812,6.52255 1.0197,2.44049 1.02149,7.30261 0.004,9.73881 -2.6136,6.25521 -12.47796,8.90125 -18.45007,4.9491 -4.58192,-3.03218 -6.25236,-10.54161 -3.57513,-16.07202 2.62811,-5.42895 10.13303,-10.03411 19.50405,-11.96805 6.13322,-1.26574 18.0125,-1.5088 23.566,-0.48218 8.75518,1.61848 14.94577,6.57976 17.37855,13.92757 1.25114,3.77888 1.29786,4.83688 1.49262,33.80325 0.13282,19.75439 0.41817,30.452 0.84082,31.52212 0.9472,2.39823 3.08511,2.69355 6.46236,0.89268 2.64277,-1.40922 2.80915,-1.43007 3.13824,-0.39319 0.48851,1.53916 9.1e-4,2.09849 -3.27773,3.7599 -9.12166,4.6223 -21.35421,4.24095 -26.41876,-0.8236 -2.01624,-2.01624 -3.44112,-5.313 -3.4486,-7.97908 -0.002,-0.86182 -0.90413,-0.16637 -3.46904,2.67553 -7.08734,7.85269 -18.016,11.13051 -28.07973,8.42193 z m 24.38192,-9.96159 c 1.19892,-0.49946 3.16928,-1.87223 4.37856,-3.05059 l 2.1987,-2.14248 v -17.29642 -17.29642 l -2.1987,2.08305 c -1.20928,1.14568 -4.25717,3.48431 -6.77307,5.19696 -9.06637,6.17172 -12.34793,11.62393 -12.34749,20.51498 3.3e-4,6.66544 1.95413,10.5957 6.08701,12.24467 2.20407,0.8794 6.21738,0.76173 8.65499,-0.25375 z"
     id="path40" />
  <path
     style="fill:#c9184a;fill-opacity:1;stroke-width:0.586319"
     d="m 613.28992,333.46906 c -1e-5,-0.94906 0.34528,-1.31922 1.23059,-1.31922 2.30532,0 5.00005,-1.75707 6.09994,-3.9774 0.9419,-1.90139 1.11266,-4.1395 1.34053,-17.56983 l 0.26114,-15.39088 h 11.33718 11.33717 l 0.17392,15.39088 c 0.18801,16.6391 0.36288,17.64188 3.47827,19.94659 0.84997,0.62879 2.76283,1.28049 4.25081,1.4482 2.26966,0.25583 2.70542,0.50514 2.70543,1.54791 l 10e-6,1.24296 h -21.10748 -21.10749 z"
     id="path41" />
  <path
     style="fill:#c9184a;fill-opacity:1;stroke-width:0.586319"
     d="m 571.54242,276.00977 c -0.16106,-13.94773 -0.26711,-15.27636 -1.39224,-17.44299 -1.22602,-2.36091 -3.68052,-4.03919 -6.84399,-4.67963 -1.17924,-0.23874 -1.61259,-0.67781 -1.61316,-1.63448 -7.8e-4,-1.30799 -4.1e-4,-1.30804 9.79484,-1.13304 6.64427,0.1187 11.78731,-0.11709 15.98652,-0.7329 3.40498,-0.49935 6.50873,-0.9079 6.8972,-0.9079 0.50349,0 0.7536,2.06261 0.87095,7.18241 l 0.16463,7.18241 1.59731,-2.71714 c 2.05582,-3.49708 6.73212,-7.68909 10.60269,-9.50464 4.8033,-2.25306 8.90747,-2.91169 16.30857,-2.61718 7.68169,0.30568 11.06808,1.462 14.78079,5.04705 4.8261,4.66016 5.70397,8.163 6.09081,24.30331 l 0.30564,12.75244 h -11.43122 -11.43122 l -0.2467,-13.99358 c -0.23731,-13.46096 -0.30146,-14.09993 -1.68531,-16.7875 -1.99338,-3.87137 -4.39804,-5.1167 -9.3539,-4.84422 -2.0961,0.11525 -4.77402,0.67604 -5.95095,1.24621 -3.12604,1.51443 -6.30792,4.90429 -8.05458,8.58105 -1.45952,3.07232 -1.54098,3.75825 -1.72334,14.5114 l -0.19142,11.28664 h -11.65379 -11.65379 z"
     id="path42" />
  <path
     style="fill:#c9184a;fill-opacity:1;stroke-width:0.586319"
     d="m 561.6938,333.46906 c 10e-6,-1.01342 0.33704,-1.31922 1.45394,-1.31922 0.79967,0 2.54599,-0.43696 3.88072,-0.97101 1.86491,-0.74619 2.67919,-1.52676 3.51691,-3.37134 0.971,-2.13805 1.09152,-4.05001 1.10299,-17.49804 l 0.0129,-15.09772 h 11.72638 11.72639 l 0.003,14.80456 c 0.002,8.1425 0.26524,15.7476 0.58542,16.90021 0.78589,2.82905 2.90222,4.67634 5.80319,5.06544 1.95535,0.26227 2.4029,0.55363 2.40288,1.56432 l -2e-5,1.24201 h -21.10748 -21.10748 z"
     id="path43" />
  <path
     style="fill:#c9184a;fill-opacity:1;stroke-width:0.586319"
     d="m 501.00977,336.5245 c -13.69507,-2.55619 -23.46286,-11.71032 -27.21859,-25.50858 -0.93253,-3.42602 -2.35536,-12.58933 -2.38572,-15.36445 -0.003,-0.24186 5.49537,-0.43974 12.2178,-0.43974 h 12.22262 l 0.37135,8.06189 c 0.6585,14.29573 4.10945,25.55766 8.96681,29.26254 2.71971,2.07443 7.33158,2.53596 10.46807,1.0476 6.0477,-2.86982 9.58835,-12.47819 10.95313,-29.72383 l 0.6844,-8.6482 h 12.00584 12.00585 l -0.40745,5.0215 c -1.5427,19.01295 -10.7261,31.42073 -26.43134,35.71163 -5.03516,1.37568 -17.533,1.68457 -23.45277,0.57964 z"
     id="path44" />
  <path
     style="fill:#c9184a;fill-opacity:1;stroke-width:0.586319"
     d="m 471.68079,287.73616 c 1.61511,-14.93779 4.88417,-23.04447 11.91802,-29.55462 7.02595,-6.50282 15.24112,-9.27788 27.48664,-9.28492 8.9665,-0.005 14.33363,1.07739 20.6158,4.15822 11.23704,5.51073 17.88847,16.95805 19.19263,33.03115 l 0.40745,5.0215 h -11.99055 -11.99055 l -0.7115,-9.07408 c -1.44171,-18.38685 -5.5902,-28.06061 -12.98337,-30.27566 -4.95866,-1.48565 -9.34822,1.25435 -12.62104,7.87817 -2.71661,5.49812 -4.32413,13.3592 -4.78709,23.40968 l -0.37135,8.06189 h -12.26481 -12.2648 z"
     id="path45" />
  <path
     style="fill:#c9184a;fill-opacity:1;stroke-width:0.586319"
     d="m 347.10154,334.76078 c -4.8e-4,-1.02101 0.57601,-1.29889 3.86268,-1.86187 2.12478,-0.36396 4.40387,-1.14312 5.06463,-1.73147 2.84074,-2.52939 2.79851,-1.73516 2.79851,-52.63511 0,-54.14068 0.19941,-51.67303 -4.34234,-53.73568 -1.32018,-0.59956 -3.52166,-1.09591 -4.89219,-1.10299 -2.18946,-0.0113 -2.49185,-0.17297 -2.49182,-1.3321 l 3e-5,-1.31921 32.10094,0.0226 c 28.50778,0.0201 32.65394,0.13963 37.04132,1.06824 20.13734,4.26213 31.89764,12.46574 38.78117,27.0525 4.4328,9.39345 6.43673,22.5482 5.24731,34.44577 -0.3574,3.57502 -0.78555,6.71964 -0.95143,6.98804 -0.16588,0.26841 -6.02464,0.48793 -13.01945,0.48783 l -12.71784,-1.8e-4 v -13.63174 c 0,-14.69914 -0.63594,-20.80268 -3.0369,-29.14737 -4.05613,-14.09726 -12.12026,-22.03577 -24.81165,-24.42516 -6.03597,-1.13638 -14.10025,-0.88422 -16.77923,0.52467 -1.00456,0.5283 -2.32378,1.96159 -2.93159,3.18508 -1.05587,2.12539 -1.10512,4.39327 -1.10512,50.88902 0,47.89027 0.019,48.69681 1.19338,50.69587 2.07492,3.5319 4.32415,4.39126 11.39745,4.35458 3.39426,-0.0176 7.62252,-0.37549 9.39614,-0.79533 14.03347,-3.3219 22.31111,-13.93593 25.39385,-32.56131 l 0.77635,-4.69055 12.71221,-0.15802 12.71221,-0.15801 -1.39143,3.6967 c -6.47945,17.21431 -19.13728,28.76099 -37.31249,34.03708 -9.23633,2.68121 -12.97375,2.93789 -43.52532,2.98924 -29.01645,0.0488 -29.16882,0.0428 -29.16938,-1.1511 z"
     id="path46" />
  <path
     style="fill:#c9184a;fill-opacity:1;stroke-width:0.586319"
     d="m 283.19218,333.55049 c 0,-1.08734 0.43013,-1.27679 3.53888,-1.55868 3.87041,-0.35096 5.85934,-1.36068 7.44644,-3.78033 0.91036,-1.38791 1.05597,-3.4585 1.21578,-17.28825 l 0.18155,-15.7115 h 12.82856 12.82855 l 0.18208,15.39088 c 0.19657,16.61603 0.37545,17.6453 3.46364,19.92958 0.93106,0.68868 2.92425,1.25334 5.13029,1.45338 3.17679,0.28806 3.60769,0.47497 3.60769,1.56492 v 1.23778 h -25.21173 -25.21173 z"
     id="path47" />
  <path
     style="fill:#c9184a;fill-opacity:1;stroke-width:0.586319"
     d="m 295.39277,275.10286 c -0.15962,-14.11073 -0.30343,-16.19121 -1.21527,-17.58141 -1.58709,-2.41968 -3.57601,-3.4294 -7.44644,-3.78036 -3.10875,-0.28189 -3.53888,-0.47134 -3.53888,-1.55868 v -1.23778 h 25.21173 25.21173 v 1.23569 c 0,1.08453 -0.44829,1.282 -3.6645,1.61423 -2.10459,0.2174 -4.28846,0.83697 -5.13029,1.45547 -3.03141,2.2272 -3.21088,3.29008 -3.40631,20.17343 l -0.18155,15.68404 H 308.4034 295.57381 Z"
     id="path48" />
</svg>
