<svg id="Capa_1" data-name="Capa 1" xmlns="http://www.w3.org/2000/svg" xmlns:xlink="http://www.w3.org/1999/xlink" viewBox="0 0 1080 540"><defs><style>.cls-1{fill:url(#Degradado_sin_nombre_35);}.cls-2{fill:url(#Degradado_sin_nombre_7);}.cls-3{fill:url(#Degradado_sin_nombre_31);}.cls-4{fill:url(#Degradado_sin_nombre_35-2);}.cls-5{fill:url(#Degradado_sin_nombre_7-2);}.cls-6{fill:url(#Degradado_sin_nombre_31-2);}.cls-7{fill:url(#Degradado_sin_nombre_35-3);}.cls-8{fill:url(#Degradado_sin_nombre_7-3);}.cls-9{fill:url(#Degradado_sin_nombre_31-3);}.cls-10{fill:url(#Degradado_sin_nombre_35-4);}.cls-11{fill:url(#Degradado_sin_nombre_7-4);}.cls-12{fill:url(#Degradado_sin_nombre_31-4);}.cls-13{fill:#ffb3c1;}</style><linearGradient id="Degradado_sin_nombre_35" x1="-363.63" y1="111.98" x2="-363.63" y2="72.76" gradientTransform="matrix(0.89, 0.45, -0.45, 0.89, 695.17, 281.49)" gradientUnits="userSpaceOnUse"><stop offset="0" stop-color="#ffb3c1"/><stop offset="0.38" stop-color="#ffb9c6"/><stop offset="0.89" stop-color="#ffc9d3"/><stop offset="0.95" stop-color="#ffccd5"/></linearGradient><linearGradient id="Degradado_sin_nombre_7" x1="-367.23" y1="112" x2="-367.23" y2="84.05" gradientTransform="matrix(0.89, 0.45, -0.45, 0.89, 695.17, 281.49)" gradientUnits="userSpaceOnUse"><stop offset="0" stop-color="#c9184a"/><stop offset="0.14" stop-color="#cd1e4f"/><stop offset="0.34" stop-color="#d72f5b"/><stop offset="0.56" stop-color="#e74c71"/><stop offset="0.81" stop-color="#fe738e"/><stop offset="0.82" stop-color="#ff758f"/></linearGradient><linearGradient id="Degradado_sin_nombre_31" x1="-367.43" y1="107.69" x2="-374.05" y2="96.22" gradientTransform="matrix(0.89, 0.45, -0.45, 0.89, 695.17, 281.49)" gradientUnits="userSpaceOnUse"><stop offset="0.22" stop-color="#590d22"/><stop offset="0.46" stop-color="#5f0d24"/><stop offset="0.78" stop-color="#700e2a"/><stop offset="1" stop-color="#800f2f"/></linearGradient><linearGradient id="Degradado_sin_nombre_35-2" x1="-360.79" y1="127.08" x2="-360.79" y2="104.2" gradientTransform="translate(694.8 281.41) rotate(26.94)" xlink:href="#Degradado_sin_nombre_35"/><linearGradient id="Degradado_sin_nombre_7-2" x1="-364.8" y1="123.33" x2="-364.8" y2="107.02" gradientTransform="translate(694.8 281.41) rotate(26.94)" xlink:href="#Degradado_sin_nombre_7"/><linearGradient id="Degradado_sin_nombre_31-2" x1="-363.2" y1="121.07" x2="-369.02" y2="110.98" gradientTransform="translate(694.8 281.41) rotate(26.94)" xlink:href="#Degradado_sin_nombre_31"/><linearGradient id="Degradado_sin_nombre_35-3" x1="-505.52" y1="140.87" x2="-505.52" y2="101.65" gradientTransform="matrix(-0.89, 0.45, 0.45, 0.89, -217.78, 320.01)" xlink:href="#Degradado_sin_nombre_35"/><linearGradient id="Degradado_sin_nombre_7-3" x1="-509.13" y1="140.88" x2="-509.13" y2="112.93" gradientTransform="matrix(-0.89, 0.45, 0.45, 0.89, -217.78, 320.01)" xlink:href="#Degradado_sin_nombre_7"/><linearGradient id="Degradado_sin_nombre_31-3" x1="-509.32" y1="136.58" x2="-515.94" y2="125.11" gradientTransform="matrix(-0.89, 0.45, 0.45, 0.89, -217.78, 320.01)" xlink:href="#Degradado_sin_nombre_31"/><linearGradient id="Degradado_sin_nombre_35-4" x1="-1.51" y1="-108.04" x2="-1.51" y2="-130.93" gradientTransform="matrix(-0.89, 0.45, 0.45, 0.89, 348.99, 328.23)" xlink:href="#Degradado_sin_nombre_35"/><linearGradient id="Degradado_sin_nombre_7-4" x1="-5.52" y1="-111.8" x2="-5.52" y2="-128.1" gradientTransform="matrix(-0.89, 0.45, 0.45, 0.89, 348.99, 328.23)" xlink:href="#Degradado_sin_nombre_7"/><linearGradient id="Degradado_sin_nombre_31-4" x1="-3.92" y1="-114.06" x2="-9.75" y2="-124.14" gradientTransform="matrix(-0.89, 0.45, 0.45, 0.89, 348.99, 328.23)" xlink:href="#Degradado_sin_nombre_31"/></defs><path class="cls-1" d="M309.07,210.87h24.27a7.88,7.88,0,0,0,6.81-3.9A50.36,50.36,0,0,0,346.21,192c3-13.15-13.33-7.57-23,.36C317.66,197,310.09,202.57,309.07,210.87Z"/><path class="cls-2" d="M309.07,210.89h17.3a5.63,5.63,0,0,0,4.85-2.78,35.85,35.85,0,0,0,4.31-10.64c2.12-9.37-9.5-5.39-16.36.26C315.19,201,309.8,205,309.07,210.89Z"/><path class="cls-3" d="M309.07,210.88h12.24a4,4,0,0,0,3.43-2,25.29,25.29,0,0,0,3.06-7.52c1.49-6.63-6.73-3.82-11.59.18C313.4,203.88,309.59,206.7,309.07,210.88Z"/><path class="cls-4" d="M309.07,213.59c.58,5.35,3.84,11.72,11.49,19.46,5.17,5.18,8.64,2.07,10.08-1s3.16-5.95,4.15-10.54-.36-8.11-5.86-8C324.51,213.57,313.3,213.59,309.07,213.59Z"/><path class="cls-5" d="M309.07,213.49c.41,3.81,2.73,8.35,8.18,13.87,3.69,3.69,6.16,1.48,7.19-.7a30.76,30.76,0,0,0,2.95-7.52c.71-3.27-.25-5.77-4.17-5.71C320.07,213.48,312.08,213.49,309.07,213.49Z"/><path class="cls-6" d="M309.07,213.49c.29,2.7,1.93,5.91,5.79,9.82,2.61,2.61,4.36,1,5.09-.5a22.33,22.33,0,0,0,2.09-5.32c.5-2.31-.19-4.09-3-4C316.85,213.49,311.2,213.49,309.07,213.49Z"/><path class="cls-7" d="M307.9,210.85H283.63a7.87,7.87,0,0,1-6.81-3.9A50.09,50.09,0,0,1,270.76,192c-3-13.15,13.33-7.56,23,.36C299.31,197,306.87,202.55,307.9,210.85Z"/><path class="cls-8" d="M307.9,210.87H290.6a5.63,5.63,0,0,1-4.85-2.78,36,36,0,0,1-4.32-10.64c-2.11-9.37,9.5-5.39,16.37.26C301.78,201,307.17,205,307.9,210.87Z"/><path class="cls-9" d="M307.9,210.86H295.66a4,4,0,0,1-3.43-2,25.37,25.37,0,0,1-3.06-7.53c-1.5-6.63,6.72-3.81,11.58.18C303.57,203.86,307.38,206.68,307.9,210.86Z"/><path class="cls-10" d="M307.9,213.59c-.58,5.35-3.84,11.72-11.49,19.46-5.18,5.18-8.65,2.07-10.09-1s-3.15-5.95-4.14-10.54.36-8.11,5.86-8C292.45,213.57,303.67,213.59,307.9,213.59Z"/><path class="cls-11" d="M307.9,213.49c-.42,3.81-2.73,8.35-8.18,13.87-3.69,3.69-6.17,1.48-7.19-.7a31.15,31.15,0,0,1-3-7.52c-.7-3.27.26-5.77,4.18-5.71C296.9,213.48,304.89,213.49,307.9,213.49Z"/><path class="cls-12" d="M307.9,213.49c-.29,2.7-1.93,5.91-5.79,9.82-2.61,2.61-4.36,1-5.09-.5a22.33,22.33,0,0,1-2.09-5.32c-.5-2.31.18-4.09,2.95-4C300.11,213.49,305.77,213.49,307.9,213.49Z"/><path class="cls-13" d="M724.29,255.73c4.8,5,5.84,11.52,5.84,23v44.57c0,5.28.88,7.28,3.52,7.28,2.32,0,4.16-1.36,6-2.8l1.68,2.8c-5,4-10.4,6-18.72,6-12,0-15.68-6.24-15.76-13.28a27.69,27.69,0,0,1-24.17,13.28c-12.24,0-20.72-6.72-20.72-18.64s7.84-18.49,23-24.09c12.09-4.56,21.53-7.68,21.53-14.72v-12.8c0-8.56-3.68-14.65-13.37-14.65-3.92,0-8.72,1.12-11.68,4,5.84,2,9.68,6.24,9.68,12.88,0,6.8-5.28,11.76-13.36,11.76-7.12,0-11.6-5.44-11.6-12.64,0-6,3.84-10.56,9.2-13.68,5.84-3.29,13.84-5.61,24.89-5.61C710.85,248.36,719,250.28,724.29,255.73Zm-17.76,30.08c-1.52,2.48-4.64,4.64-10.17,8.08-5.76,4.24-11.12,9.61-11.12,19.45,0,9,4.4,12.72,10.24,12.72,4,0,7.61-1.76,11-6.64Z"/><path class="cls-13" d="M755.16,226.84v64.53h23.52V274.53c0-11.12,7.29-19,16.33-19,8.16,0,10.08,5.52,10.08,13.68v22.12h23.6V276.05c0-11.12-1.52-17.12-5.12-21.28-3.36-3.85-8.72-6.41-18.08-6.41-11.52,0-21.36,4.08-26.81,15.21V207.24c-6.8,1.6-14.72,2.24-23.92,2.24-3.2,0-6.64-.16-10.08-.48v3.44C752.6,212.44,755.16,217.08,755.16,226.84Z"/><path class="cls-13" d="M778.68,320.22v-25.3H755.16v25.3c0,9.12-2.88,11.76-10.48,11.76v3.44c4.32-.16,14.16-.64,22.56-.64,8,0,16.49.48,20.33.64V332C781.08,332,778.68,329.34,778.68,320.22Z"/><path class="cls-13" d="M828.69,320.22v-25.3h-23.6v25.3c0,9.12-2.32,11.76-8.8,11.76v3.44c4-.16,12.88-.64,21.28-.64,8,0,17.45.48,21.61.64V332C831.58,332,828.69,329.34,828.69,320.22Z"/><path class="cls-13" d="M309,250.87c-10.48,0-20.32-.16-25.84-.48v3.28c10.32.48,12.24,2.16,12.24,14.08v23.62h26.09V267.75c0-11.92,1.84-13.6,12.32-14.08v-3.28C327.89,250.71,318.13,250.87,309,250.87Z"/><path class="cls-13" d="M321.49,318.06V294.92H295.4v23.14c0,11.92-1.84,13.6-12.24,14.08v3.28c5.52-.32,15.36-.48,25.84-.48,9.13,0,18.89.16,24.81.48v-3.28C323.41,331.66,321.49,330,321.49,318.06Z"/><path class="cls-13" d="M571.64,268.53v22.84h23.6V274.53c0-10.8,7-19,16.25-19,8.16,0,10.08,5.52,10.08,13.68v22.12h23.6V276.05c0-11.12-1.52-17.12-5.12-21.28-3.36-3.85-8.72-6.41-18.08-6.41-11.52,0-21.29,4.16-26.73,15.29V248.84a106.33,106.33,0,0,1-23.92,2.32c-3.28,0-6.72-.24-10.16-.56v3.45C569.08,254.05,571.64,258.69,571.64,268.53Z"/><path class="cls-13" d="M595.24,320.22v-25.3h-23.6v25.3c0,9.12-2.88,11.76-10.48,11.76v3.44c4.32-.16,14.16-.64,22.56-.64,8,0,16.48.48,20.32.64V332C597.56,332,595.24,329.34,595.24,320.22Z"/><path class="cls-13" d="M645.17,320.22v-25.3h-23.6v25.3c0,9.12-2.32,11.76-8.8,11.76v3.44c4-.16,12.88-.64,21.28-.64,8,0,17.44.48,21.61.64V332C648.05,332,645.17,329.34,645.17,320.22Z"/><path class="cls-13" d="M526.76,294.92c-.27,28-6.66,39.54-15.44,39.54S496.24,323,496,294.92h-24.7c.61,31.11,17,42.82,40.05,42.82s39.53-11.71,40.14-42.82Z"/><path class="cls-13" d="M496,291.37c.26-28,6.65-39.73,15.35-39.73s15.18,11.7,15.44,39.73h24.7c-.58-31.11-17-43-40.14-43s-39.47,11.9-40.06,43Z"/><path class="cls-13" d="M432.84,294.92c-2.8,24.87-12.82,38.53-35.62,38.53-10.17,0-12.33-2.64-12.33-14.09V237.43c0-11.29,2.16-14.09,12.17-14.09,26.4,0,36.64,17.69,36.64,54.42q0,7.25-.52,13.61H459.5a71,71,0,0,0,1.41-14.25c0-36.57-20.57-56.74-63.69-56.74-6.57,0-17.93.32-25.77.48-1.68,0-3.44.08-5.12.08-7.68,0-15.28-.32-19.76-.56v3.28c10.32.48,12.24,2.16,12.24,14.09V319c0,11.93-1.84,13.61-12.24,14.09v3.28c5.52-.32,15.52-.48,25.2-.48,7.36,0,18.8.48,23.93.48,33.88,0,56.12-16,63-41.49Z"/></svg>