<?xml version="1.0" encoding="UTF-8" standalone="no"?>
<svg
   id="Capa_1"
   data-name="Capa 1"
   viewBox="0 0 1080 540"
   version="1.1"
   sodipodi:docname="idonah-logo-main-NB-800F2F.svg"
   inkscape:version="1.3.2 (091e20e, 2023-11-25, custom)"
   xmlns:inkscape="http://www.inkscape.org/namespaces/inkscape"
   xmlns:sodipodi="http://sodipodi.sourceforge.net/DTD/sodipodi-0.dtd"
   xmlns:xlink="http://www.w3.org/1999/xlink"
   xmlns="http://www.w3.org/2000/svg"
   xmlns:svg="http://www.w3.org/2000/svg">
  <sodipodi:namedview
     id="namedview37"
     pagecolor="#ffffff"
     bordercolor="#000000"
     borderopacity="0.25"
     inkscape:showpageshadow="2"
     inkscape:pageopacity="0.0"
     inkscape:pagecheckerboard="0"
     inkscape:deskcolor="#d1d1d1"
     showgrid="false"
     inkscape:zoom="2.4120199"
     inkscape:cx="636.18879"
     inkscape:cy="256.0095"
     inkscape:window-width="2400"
     inkscape:window-height="1271"
     inkscape:window-x="3741"
     inkscape:window-y="-9"
     inkscape:window-maximized="1"
     inkscape:current-layer="Capa_1" />
  <defs
     id="defs14">
    <style
       id="style1">.cls-1{fill:url(#Degradado_sin_nombre_35);}.cls-2{fill:url(#Degradado_sin_nombre_7);}.cls-3{fill:url(#Degradado_sin_nombre_31);}.cls-4{fill:url(#Degradado_sin_nombre_35-2);}.cls-5{fill:url(#Degradado_sin_nombre_7-2);}.cls-6{fill:url(#Degradado_sin_nombre_31-2);}.cls-7{fill:url(#Degradado_sin_nombre_35-3);}.cls-8{fill:url(#Degradado_sin_nombre_7-3);}.cls-9{fill:url(#Degradado_sin_nombre_31-3);}.cls-10{fill:url(#Degradado_sin_nombre_35-4);}.cls-11{fill:url(#Degradado_sin_nombre_7-4);}.cls-12{fill:url(#Degradado_sin_nombre_31-4);}.cls-13{fill:#ffb3c1;}</style>
    <linearGradient
       id="Degradado_sin_nombre_35"
       x1="-363.63"
       y1="111.98"
       x2="-363.63"
       y2="72.76"
       gradientTransform="matrix(0.89, 0.45, -0.45, 0.89, 695.17, 281.49)"
       gradientUnits="userSpaceOnUse">
      <stop
         offset="0"
         stop-color="#ffb3c1"
         id="stop1" />
      <stop
         offset="0.38"
         stop-color="#ffb9c6"
         id="stop2" />
      <stop
         offset="0.89"
         stop-color="#ffc9d3"
         id="stop3" />
      <stop
         offset="0.95"
         stop-color="#ffccd5"
         id="stop4" />
    </linearGradient>
    <linearGradient
       id="Degradado_sin_nombre_7"
       x1="-367.23"
       y1="112"
       x2="-367.23"
       y2="84.05"
       gradientTransform="matrix(0.89, 0.45, -0.45, 0.89, 695.17, 281.49)"
       gradientUnits="userSpaceOnUse">
      <stop
         offset="0"
         stop-color="#c9184a"
         id="stop5" />
      <stop
         offset="0.14"
         stop-color="#cd1e4f"
         id="stop6" />
      <stop
         offset="0.34"
         stop-color="#d72f5b"
         id="stop7" />
      <stop
         offset="0.56"
         stop-color="#e74c71"
         id="stop8" />
      <stop
         offset="0.81"
         stop-color="#fe738e"
         id="stop9" />
      <stop
         offset="0.82"
         stop-color="#ff758f"
         id="stop10" />
    </linearGradient>
    <linearGradient
       id="Degradado_sin_nombre_31"
       x1="-367.43"
       y1="107.69"
       x2="-374.05"
       y2="96.22"
       gradientTransform="matrix(0.89, 0.45, -0.45, 0.89, 695.17, 281.49)"
       gradientUnits="userSpaceOnUse">
      <stop
         offset="0.22"
         stop-color="#590d22"
         id="stop11" />
      <stop
         offset="0.46"
         stop-color="#5f0d24"
         id="stop12" />
      <stop
         offset="0.78"
         stop-color="#700e2a"
         id="stop13" />
      <stop
         offset="1"
         stop-color="#800f2f"
         id="stop14" />
    </linearGradient>
    <linearGradient
       id="Degradado_sin_nombre_35-2"
       x1="-360.79"
       y1="127.08"
       x2="-360.79"
       y2="104.2"
       gradientTransform="translate(694.8 281.41) rotate(26.94)"
       xlink:href="#Degradado_sin_nombre_35" />
    <linearGradient
       id="Degradado_sin_nombre_7-2"
       x1="-364.8"
       y1="123.33"
       x2="-364.8"
       y2="107.02"
       gradientTransform="translate(694.8 281.41) rotate(26.94)"
       xlink:href="#Degradado_sin_nombre_7" />
    <linearGradient
       id="Degradado_sin_nombre_31-2"
       x1="-363.2"
       y1="121.07"
       x2="-369.02"
       y2="110.98"
       gradientTransform="translate(694.8 281.41) rotate(26.94)"
       xlink:href="#Degradado_sin_nombre_31" />
    <linearGradient
       id="Degradado_sin_nombre_35-3"
       x1="-505.52"
       y1="140.87"
       x2="-505.52"
       y2="101.65"
       gradientTransform="matrix(-0.89, 0.45, 0.45, 0.89, -217.78, 320.01)"
       xlink:href="#Degradado_sin_nombre_35" />
    <linearGradient
       id="Degradado_sin_nombre_7-3"
       x1="-509.13"
       y1="140.88"
       x2="-509.13"
       y2="112.93"
       gradientTransform="matrix(-0.89, 0.45, 0.45, 0.89, -217.78, 320.01)"
       xlink:href="#Degradado_sin_nombre_7" />
    <linearGradient
       id="Degradado_sin_nombre_31-3"
       x1="-509.32"
       y1="136.58"
       x2="-515.94"
       y2="125.11"
       gradientTransform="matrix(-0.89, 0.45, 0.45, 0.89, -217.78, 320.01)"
       xlink:href="#Degradado_sin_nombre_31" />
    <linearGradient
       id="Degradado_sin_nombre_35-4"
       x1="-1.51"
       y1="-108.04"
       x2="-1.51"
       y2="-130.93"
       gradientTransform="matrix(-0.89, 0.45, 0.45, 0.89, 348.99, 328.23)"
       xlink:href="#Degradado_sin_nombre_35" />
    <linearGradient
       id="Degradado_sin_nombre_7-4"
       x1="-5.52"
       y1="-111.8"
       x2="-5.52"
       y2="-128.1"
       gradientTransform="matrix(-0.89, 0.45, 0.45, 0.89, 348.99, 328.23)"
       xlink:href="#Degradado_sin_nombre_7" />
    <linearGradient
       id="Degradado_sin_nombre_31-4"
       x1="-3.92"
       y1="-114.06"
       x2="-9.75"
       y2="-124.14"
       gradientTransform="matrix(-0.89, 0.45, 0.45, 0.89, 348.99, 328.23)"
       xlink:href="#Degradado_sin_nombre_31" />
  </defs>
  <path
     class="cls-1"
     d="M309.07,210.87h24.27a7.88,7.88,0,0,0,6.81-3.9A50.36,50.36,0,0,0,346.21,192c3-13.15-13.33-7.57-23,.36C317.66,197,310.09,202.57,309.07,210.87Z"
     id="path14" />
  <path
     class="cls-2"
     d="M309.07,210.89h17.3a5.63,5.63,0,0,0,4.85-2.78,35.85,35.85,0,0,0,4.31-10.64c2.12-9.37-9.5-5.39-16.36.26C315.19,201,309.8,205,309.07,210.89Z"
     id="path15" />
  <path
     class="cls-3"
     d="M309.07,210.88h12.24a4,4,0,0,0,3.43-2,25.29,25.29,0,0,0,3.06-7.52c1.49-6.63-6.73-3.82-11.59.18C313.4,203.88,309.59,206.7,309.07,210.88Z"
     id="path16" />
  <path
     class="cls-4"
     d="M309.07,213.59c.58,5.35,3.84,11.72,11.49,19.46,5.17,5.18,8.64,2.07,10.08-1s3.16-5.95,4.15-10.54-.36-8.11-5.86-8C324.51,213.57,313.3,213.59,309.07,213.59Z"
     id="path17" />
  <path
     class="cls-5"
     d="M309.07,213.49c.41,3.81,2.73,8.35,8.18,13.87,3.69,3.69,6.16,1.48,7.19-.7a30.76,30.76,0,0,0,2.95-7.52c.71-3.27-.25-5.77-4.17-5.71C320.07,213.48,312.08,213.49,309.07,213.49Z"
     id="path18" />
  <path
     class="cls-6"
     d="M309.07,213.49c.29,2.7,1.93,5.91,5.79,9.82,2.61,2.61,4.36,1,5.09-.5a22.33,22.33,0,0,0,2.09-5.32c.5-2.31-.19-4.09-3-4C316.85,213.49,311.2,213.49,309.07,213.49Z"
     id="path19" />
  <path
     class="cls-7"
     d="M307.9,210.85H283.63a7.87,7.87,0,0,1-6.81-3.9A50.09,50.09,0,0,1,270.76,192c-3-13.15,13.33-7.56,23,.36C299.31,197,306.87,202.55,307.9,210.85Z"
     id="path20" />
  <path
     class="cls-8"
     d="M307.9,210.87H290.6a5.63,5.63,0,0,1-4.85-2.78,36,36,0,0,1-4.32-10.64c-2.11-9.37,9.5-5.39,16.37.26C301.78,201,307.17,205,307.9,210.87Z"
     id="path21" />
  <path
     class="cls-9"
     d="M307.9,210.86H295.66a4,4,0,0,1-3.43-2,25.37,25.37,0,0,1-3.06-7.53c-1.5-6.63,6.72-3.81,11.58.18C303.57,203.86,307.38,206.68,307.9,210.86Z"
     id="path22" />
  <path
     class="cls-10"
     d="M307.9,213.59c-.58,5.35-3.84,11.72-11.49,19.46-5.18,5.18-8.65,2.07-10.09-1s-3.15-5.95-4.14-10.54.36-8.11,5.86-8C292.45,213.57,303.67,213.59,307.9,213.59Z"
     id="path23" />
  <path
     class="cls-11"
     d="M307.9,213.49c-.42,3.81-2.73,8.35-8.18,13.87-3.69,3.69-6.17,1.48-7.19-.7a31.15,31.15,0,0,1-3-7.52c-.7-3.27.26-5.77,4.18-5.71C296.9,213.48,304.89,213.49,307.9,213.49Z"
     id="path24" />
  <path
     class="cls-12"
     d="M307.9,213.49c-.29,2.7-1.93,5.91-5.79,9.82-2.61,2.61-4.36,1-5.09-.5a22.33,22.33,0,0,1-2.09-5.32c-.5-2.31.18-4.09,2.95-4C300.11,213.49,305.77,213.49,307.9,213.49Z"
     id="path25" />
  <path
     class="cls-13"
     d="M724.29,255.73c4.8,5,5.84,11.52,5.84,23v44.57c0,5.28.88,7.28,3.52,7.28,2.32,0,4.16-1.36,6-2.8l1.68,2.8c-5,4-10.4,6-18.72,6-12,0-15.68-6.24-15.76-13.28a27.69,27.69,0,0,1-24.17,13.28c-12.24,0-20.72-6.72-20.72-18.64s7.84-18.49,23-24.09c12.09-4.56,21.53-7.68,21.53-14.72v-12.8c0-8.56-3.68-14.65-13.37-14.65-3.92,0-8.72,1.12-11.68,4,5.84,2,9.68,6.24,9.68,12.88,0,6.8-5.28,11.76-13.36,11.76-7.12,0-11.6-5.44-11.6-12.64,0-6,3.84-10.56,9.2-13.68,5.84-3.29,13.84-5.61,24.89-5.61C710.85,248.36,719,250.28,724.29,255.73Zm-17.76,30.08c-1.52,2.48-4.64,4.64-10.17,8.08-5.76,4.24-11.12,9.61-11.12,19.45,0,9,4.4,12.72,10.24,12.72,4,0,7.61-1.76,11-6.64Z"
     id="path26"
     style="fill:#800f2f;fill-opacity:1" />
  <path
     class="cls-13"
     d="M755.16,226.84v64.53h23.52V274.53c0-11.12,7.29-19,16.33-19,8.16,0,10.08,5.52,10.08,13.68v22.12h23.6V276.05c0-11.12-1.52-17.12-5.12-21.28-3.36-3.85-8.72-6.41-18.08-6.41-11.52,0-21.36,4.08-26.81,15.21V207.24c-6.8,1.6-14.72,2.24-23.92,2.24-3.2,0-6.64-.16-10.08-.48v3.44C752.6,212.44,755.16,217.08,755.16,226.84Z"
     id="path27"
     style="fill:#800f2f;fill-opacity:1" />
  <path
     class="cls-13"
     d="M778.68,320.22v-25.3H755.16v25.3c0,9.12-2.88,11.76-10.48,11.76v3.44c4.32-.16,14.16-.64,22.56-.64,8,0,16.49.48,20.33.64V332C781.08,332,778.68,329.34,778.68,320.22Z"
     id="path28"
     style="fill:#800f2f;fill-opacity:1" />
  <path
     class="cls-13"
     d="M828.69,320.22v-25.3h-23.6v25.3c0,9.12-2.32,11.76-8.8,11.76v3.44c4-.16,12.88-.64,21.28-.64,8,0,17.45.48,21.61.64V332C831.58,332,828.69,329.34,828.69,320.22Z"
     id="path29"
     style="fill:#800f2f;fill-opacity:1" />
  <path
     class="cls-13"
     d="M309,250.87c-10.48,0-20.32-.16-25.84-.48v3.28c10.32.48,12.24,2.16,12.24,14.08v23.62h26.09V267.75c0-11.92,1.84-13.6,12.32-14.08v-3.28C327.89,250.71,318.13,250.87,309,250.87Z"
     id="path30"
     style="fill:#800f2f;fill-opacity:1" />
  <path
     class="cls-13"
     d="M321.49,318.06V294.92H295.4v23.14c0,11.92-1.84,13.6-12.24,14.08v3.28c5.52-.32,15.36-.48,25.84-.48,9.13,0,18.89.16,24.81.48v-3.28C323.41,331.66,321.49,330,321.49,318.06Z"
     id="path31"
     style="fill:#800f2f;fill-opacity:1" />
  <path
     class="cls-13"
     d="M571.64,268.53v22.84h23.6V274.53c0-10.8,7-19,16.25-19,8.16,0,10.08,5.52,10.08,13.68v22.12h23.6V276.05c0-11.12-1.52-17.12-5.12-21.28-3.36-3.85-8.72-6.41-18.08-6.41-11.52,0-21.29,4.16-26.73,15.29V248.84a106.33,106.33,0,0,1-23.92,2.32c-3.28,0-6.72-.24-10.16-.56v3.45C569.08,254.05,571.64,258.69,571.64,268.53Z"
     id="path32"
     style="fill:#800f2f;fill-opacity:1" />
  <path
     class="cls-13"
     d="M595.24,320.22v-25.3h-23.6v25.3c0,9.12-2.88,11.76-10.48,11.76v3.44c4.32-.16,14.16-.64,22.56-.64,8,0,16.48.48,20.32.64V332C597.56,332,595.24,329.34,595.24,320.22Z"
     id="path33"
     style="fill:#800f2f;fill-opacity:1" />
  <path
     class="cls-13"
     d="M645.17,320.22v-25.3h-23.6v25.3c0,9.12-2.32,11.76-8.8,11.76v3.44c4-.16,12.88-.64,21.28-.64,8,0,17.44.48,21.61.64V332C648.05,332,645.17,329.34,645.17,320.22Z"
     id="path34"
     style="fill:#800f2f;fill-opacity:1" />
  <path
     class="cls-13"
     d="M526.76,294.92c-.27,28-6.66,39.54-15.44,39.54S496.24,323,496,294.92h-24.7c.61,31.11,17,42.82,40.05,42.82s39.53-11.71,40.14-42.82Z"
     id="path35"
     style="fill:#800f2f;fill-opacity:1" />
  <path
     class="cls-13"
     d="M496,291.37c.26-28,6.65-39.73,15.35-39.73s15.18,11.7,15.44,39.73h24.7c-.58-31.11-17-43-40.14-43s-39.47,11.9-40.06,43Z"
     id="path36"
     style="fill:#800f2f;fill-opacity:1" />
  <path
     class="cls-13"
     d="M432.84,294.92c-2.8,24.87-12.82,38.53-35.62,38.53-10.17,0-12.33-2.64-12.33-14.09V237.43c0-11.29,2.16-14.09,12.17-14.09,26.4,0,36.64,17.69,36.64,54.42q0,7.25-.52,13.61H459.5a71,71,0,0,0,1.41-14.25c0-36.57-20.57-56.74-63.69-56.74-6.57,0-17.93.32-25.77.48-1.68,0-3.44.08-5.12.08-7.68,0-15.28-.32-19.76-.56v3.28c10.32.48,12.24,2.16,12.24,14.09V319c0,11.93-1.84,13.61-12.24,14.09v3.28c5.52-.32,15.52-.48,25.2-.48,7.36,0,18.8.48,23.93.48,33.88,0,56.12-16,63-41.49Z"
     id="path37"
     style="fill:#800f2f;fill-opacity:1" />
  <path
     style="fill:#800f2f;fill-opacity:1;stroke-width:0.586319"
     d="m 745.21171,333.46906 c 10e-6,-1.01342 0.33705,-1.31922 1.45395,-1.31922 0.79966,0 2.54599,-0.43696 3.88072,-0.97101 1.86491,-0.74619 2.67918,-1.52676 3.5169,-3.37134 0.97101,-2.13805 1.09153,-4.05001 1.103,-17.49804 l 0.0129,-15.09772 h 11.72639 11.72638 v 15.26313 c 0,16.115 0.23878,17.82697 2.80517,20.11229 0.66443,0.59166 2.2839,1.22005 3.59884,1.39642 1.94351,0.26068 2.39078,0.55303 2.39076,1.56269 l -2e-5,1.24201 H 766.31919 745.2117 Z"
     id="path38" />
  <path
     style="fill:#800f2f;fill-opacity:1;stroke-width:0.586319"
     d="m 796.80784,333.46906 c -2e-5,-0.94906 0.34527,-1.31922 1.23059,-1.31922 2.3283,0 5.10496,-1.80136 6.17025,-4.00296 0.89479,-1.84924 1.07653,-4.32728 1.28666,-17.54427 l 0.2447,-15.39088 h 11.33717 11.33718 l 0.17391,15.39088 c 0.18802,16.6391 0.36288,17.64188 3.47827,19.94659 0.84997,0.62879 2.76284,1.28049 4.25082,1.4482 2.26966,0.25583 2.70541,0.50514 2.70542,1.54791 l 2e-5,1.24296 h -21.10749 -21.10748 z"
     id="path39" />
  <path
     style="fill:#800f2f;fill-opacity:1;stroke-width:0.586319"
     d="m 675.55548,335.34013 c -3.90652,-1.05141 -4.93198,-1.60455 -7.83222,-4.22475 -4.16531,-3.7631 -6.03512,-9.6288 -5.14957,-16.15446 1.36011,-10.02268 7.11902,-14.85485 26.95411,-22.61655 10.26269,-4.01591 14.11385,-6.20618 15.81327,-8.99348 1.0436,-1.71165 1.16944,-2.96148 1.1714,-11.63407 0.003,-11.40484 -0.62607,-14.0442 -4.09054,-17.17413 -2.59848,-2.34757 -7.39272,-3.62542 -11.32462,-3.01845 -3.9038,0.60264 -7.81074,2.01138 -8.8921,3.20627 -0.94914,1.04879 -0.89683,1.1454 1.14499,2.1143 2.72422,1.29273 5.51714,4.079 6.53812,6.52255 1.0197,2.44049 1.02149,7.30261 0.004,9.73881 -2.6136,6.25521 -12.47796,8.90125 -18.45007,4.9491 -4.58192,-3.03218 -6.25236,-10.54161 -3.57513,-16.07202 2.62811,-5.42895 10.13303,-10.03411 19.50405,-11.96805 6.13322,-1.26574 18.0125,-1.5088 23.566,-0.48218 8.75518,1.61848 14.94577,6.57976 17.37855,13.92757 1.25114,3.77888 1.29786,4.83688 1.49262,33.80325 0.13282,19.75439 0.41817,30.452 0.84082,31.52212 0.9472,2.39823 3.08511,2.69355 6.46236,0.89268 2.64277,-1.40922 2.80915,-1.43007 3.13824,-0.39319 0.48851,1.53916 9.1e-4,2.09849 -3.27773,3.7599 -9.12166,4.6223 -21.35421,4.24095 -26.41876,-0.8236 -2.01624,-2.01624 -3.44112,-5.313 -3.4486,-7.97908 -0.002,-0.86182 -0.90413,-0.16637 -3.46904,2.67553 -7.08734,7.85269 -18.016,11.13051 -28.07973,8.42193 z m 24.38192,-9.96159 c 1.19892,-0.49946 3.16928,-1.87223 4.37856,-3.05059 l 2.1987,-2.14248 v -17.29642 -17.29642 l -2.1987,2.08305 c -1.20928,1.14568 -4.25717,3.48431 -6.77307,5.19696 -9.06637,6.17172 -12.34793,11.62393 -12.34749,20.51498 3.3e-4,6.66544 1.95413,10.5957 6.08701,12.24467 2.20407,0.8794 6.21738,0.76173 8.65499,-0.25375 z"
     id="path40" />
  <path
     style="fill:#800f2f;fill-opacity:1;stroke-width:0.586319"
     d="m 613.28992,333.46906 c -1e-5,-0.94906 0.34528,-1.31922 1.23059,-1.31922 2.30532,0 5.00005,-1.75707 6.09994,-3.9774 0.9419,-1.90139 1.11266,-4.1395 1.34053,-17.56983 l 0.26114,-15.39088 h 11.33718 11.33717 l 0.17392,15.39088 c 0.18801,16.6391 0.36288,17.64188 3.47827,19.94659 0.84997,0.62879 2.76283,1.28049 4.25081,1.4482 2.26966,0.25583 2.70542,0.50514 2.70543,1.54791 l 10e-6,1.24296 h -21.10748 -21.10749 z"
     id="path41" />
  <path
     style="fill:#800f2f;fill-opacity:1;stroke-width:0.586319"
     d="m 571.54242,276.00977 c -0.16106,-13.94773 -0.26711,-15.27636 -1.39224,-17.44299 -1.22602,-2.36091 -3.68052,-4.03919 -6.84399,-4.67963 -1.17924,-0.23874 -1.61259,-0.67781 -1.61316,-1.63448 -7.8e-4,-1.30799 -4.1e-4,-1.30804 9.79484,-1.13304 6.64427,0.1187 11.78731,-0.11709 15.98652,-0.7329 3.40498,-0.49935 6.50873,-0.9079 6.8972,-0.9079 0.50349,0 0.7536,2.06261 0.87095,7.18241 l 0.16463,7.18241 1.59731,-2.71714 c 2.05582,-3.49708 6.73212,-7.68909 10.60269,-9.50464 4.8033,-2.25306 8.90747,-2.91169 16.30857,-2.61718 7.68169,0.30568 11.06808,1.462 14.78079,5.04705 4.8261,4.66016 5.70397,8.163 6.09081,24.30331 l 0.30564,12.75244 h -11.43122 -11.43122 l -0.2467,-13.99358 c -0.23731,-13.46096 -0.30146,-14.09993 -1.68531,-16.7875 -1.99338,-3.87137 -4.39804,-5.1167 -9.3539,-4.84422 -2.0961,0.11525 -4.77402,0.67604 -5.95095,1.24621 -3.12604,1.51443 -6.30792,4.90429 -8.05458,8.58105 -1.45952,3.07232 -1.54098,3.75825 -1.72334,14.5114 l -0.19142,11.28664 h -11.65379 -11.65379 z"
     id="path42" />
  <path
     style="fill:#800f2f;fill-opacity:1;stroke-width:0.586319"
     d="m 561.6938,333.46906 c 10e-6,-1.01342 0.33704,-1.31922 1.45394,-1.31922 0.79967,0 2.54599,-0.43696 3.88072,-0.97101 1.86491,-0.74619 2.67919,-1.52676 3.51691,-3.37134 0.971,-2.13805 1.09152,-4.05001 1.10299,-17.49804 l 0.0129,-15.09772 h 11.72638 11.72639 l 0.003,14.80456 c 0.002,8.1425 0.26524,15.7476 0.58542,16.90021 0.78589,2.82905 2.90222,4.67634 5.80319,5.06544 1.95535,0.26227 2.4029,0.55363 2.40288,1.56432 l -2e-5,1.24201 h -21.10748 -21.10748 z"
     id="path43" />
  <path
     style="fill:#800f2f;fill-opacity:1;stroke-width:0.586319"
     d="m 501.00977,336.5245 c -13.69507,-2.55619 -23.46286,-11.71032 -27.21859,-25.50858 -0.93253,-3.42602 -2.35536,-12.58933 -2.38572,-15.36445 -0.003,-0.24186 5.49537,-0.43974 12.2178,-0.43974 h 12.22262 l 0.37135,8.06189 c 0.6585,14.29573 4.10945,25.55766 8.96681,29.26254 2.71971,2.07443 7.33158,2.53596 10.46807,1.0476 6.0477,-2.86982 9.58835,-12.47819 10.95313,-29.72383 l 0.6844,-8.6482 h 12.00584 12.00585 l -0.40745,5.0215 c -1.5427,19.01295 -10.7261,31.42073 -26.43134,35.71163 -5.03516,1.37568 -17.533,1.68457 -23.45277,0.57964 z"
     id="path44" />
  <path
     style="fill:#800f2f;fill-opacity:1;stroke-width:0.586319"
     d="m 471.68079,287.73616 c 1.61511,-14.93779 4.88417,-23.04447 11.91802,-29.55462 7.02595,-6.50282 15.24112,-9.27788 27.48664,-9.28492 8.9665,-0.005 14.33363,1.07739 20.6158,4.15822 11.23704,5.51073 17.88847,16.95805 19.19263,33.03115 l 0.40745,5.0215 h -11.99055 -11.99055 l -0.7115,-9.07408 c -1.44171,-18.38685 -5.5902,-28.06061 -12.98337,-30.27566 -4.95866,-1.48565 -9.34822,1.25435 -12.62104,7.87817 -2.71661,5.49812 -4.32413,13.3592 -4.78709,23.40968 l -0.37135,8.06189 h -12.26481 -12.2648 z"
     id="path45" />
  <path
     style="fill:#800f2f;fill-opacity:1;stroke-width:0.586319"
     d="m 347.10154,334.76078 c -4.8e-4,-1.02101 0.57601,-1.29889 3.86268,-1.86187 2.12478,-0.36396 4.40387,-1.14312 5.06463,-1.73147 2.84074,-2.52939 2.79851,-1.73516 2.79851,-52.63511 0,-54.14068 0.19941,-51.67303 -4.34234,-53.73568 -1.32018,-0.59956 -3.52166,-1.09591 -4.89219,-1.10299 -2.18946,-0.0113 -2.49185,-0.17297 -2.49182,-1.3321 l 3e-5,-1.31921 32.10094,0.0226 c 28.50778,0.0201 32.65394,0.13963 37.04132,1.06824 20.13734,4.26213 31.89764,12.46574 38.78117,27.0525 4.4328,9.39345 6.43673,22.5482 5.24731,34.44577 -0.3574,3.57502 -0.78555,6.71964 -0.95143,6.98804 -0.16588,0.26841 -6.02464,0.48793 -13.01945,0.48783 l -12.71784,-1.8e-4 v -13.63174 c 0,-14.69914 -0.63594,-20.80268 -3.0369,-29.14737 -4.05613,-14.09726 -12.12026,-22.03577 -24.81165,-24.42516 -6.03597,-1.13638 -14.10025,-0.88422 -16.77923,0.52467 -1.00456,0.5283 -2.32378,1.96159 -2.93159,3.18508 -1.05587,2.12539 -1.10512,4.39327 -1.10512,50.88902 0,47.89027 0.019,48.69681 1.19338,50.69587 2.07492,3.5319 4.32415,4.39126 11.39745,4.35458 3.39426,-0.0176 7.62252,-0.37549 9.39614,-0.79533 14.03347,-3.3219 22.31111,-13.93593 25.39385,-32.56131 l 0.77635,-4.69055 12.71221,-0.15802 12.71221,-0.15801 -1.39143,3.6967 c -6.47945,17.21431 -19.13728,28.76099 -37.31249,34.03708 -9.23633,2.68121 -12.97375,2.93789 -43.52532,2.98924 -29.01645,0.0488 -29.16882,0.0428 -29.16938,-1.1511 z"
     id="path46" />
  <path
     style="fill:#800f2f;fill-opacity:1;stroke-width:0.586319"
     d="m 283.19218,333.55049 c 0,-1.08734 0.43013,-1.27679 3.53888,-1.55868 3.87041,-0.35096 5.85934,-1.36068 7.44644,-3.78033 0.91036,-1.38791 1.05597,-3.4585 1.21578,-17.28825 l 0.18155,-15.7115 h 12.82856 12.82855 l 0.18208,15.39088 c 0.19657,16.61603 0.37545,17.6453 3.46364,19.92958 0.93106,0.68868 2.92425,1.25334 5.13029,1.45338 3.17679,0.28806 3.60769,0.47497 3.60769,1.56492 v 1.23778 h -25.21173 -25.21173 z"
     id="path47" />
  <path
     style="fill:#800f2f;fill-opacity:1;stroke-width:0.586319"
     d="m 295.39277,275.10286 c -0.15962,-14.11073 -0.30343,-16.19121 -1.21527,-17.58141 -1.58709,-2.41968 -3.57601,-3.4294 -7.44644,-3.78036 -3.10875,-0.28189 -3.53888,-0.47134 -3.53888,-1.55868 v -1.23778 h 25.21173 25.21173 v 1.23569 c 0,1.08453 -0.44829,1.282 -3.6645,1.61423 -2.10459,0.2174 -4.28846,0.83697 -5.13029,1.45547 -3.03141,2.2272 -3.21088,3.29008 -3.40631,20.17343 l -0.18155,15.68404 H 308.4034 295.57381 Z"
     id="path48" />
  <path
     style="fill:#800f2f;fill-opacity:1;stroke-width:0.586319"
     d="m 283.19218,333.9434 c 0,-0.85853 0.89652,-1.22378 4.40563,-1.7949 4.13679,-0.67328 6.51992,-2.35663 7.2969,-5.15423 0.332,-1.19538 0.60698,-7.05453 0.61107,-13.02033 0.004,-5.9658 0.17564,-12.62785 0.38122,-14.80456 l 0.37377,-3.95765 h 12.14314 12.14313 l 0.37378,3.95765 c 0.20558,2.17671 0.37565,8.49597 0.37794,14.0428 0.006,14.97103 0.97545,17.81118 6.36658,18.65558 3.8365,0.6009 5.56094,1.16612 5.80664,1.90323 0.18905,0.56715 -5.23449,0.72412 -25.01921,0.72412 -15.39331,0 -25.26059,-0.21551 -25.26059,-0.55171 z"
     id="path49" />
  <path
     style="fill:#800f2f;fill-opacity:1;stroke-width:0.586319"
     d="m 348.27362,335.10737 c -1.17261,-0.81631 -0.1007,-1.52517 3.07399,-2.03282 3.04971,-0.48766 5.50555,-1.79361 6.43631,-3.42264 1.02487,-1.79374 1.42145,-95.75595 0.42442,-100.55862 -0.60694,-2.9236 -0.84906,-3.25805 -3.09786,-4.27911 -1.34171,-0.60921 -3.18239,-1.11344 -4.09039,-1.12052 -1.87504,-0.0146 -3.91911,-0.94951 -3.91911,-1.79246 0,-0.75976 58.48972,-0.74034 65.13892,0.0216 10.52389,1.20598 23.15146,6.16839 30.57289,12.01461 10.78173,8.4933 17.47966,24.83317 17.42625,42.51208 -0.0153,5.06624 -0.76059,13.29883 -1.24662,13.77045 -0.1087,0.10547 -5.7692,0.38317 -12.57889,0.61711 l -12.38127,0.42534 -0.32347,-16.05466 c -0.26078,-12.94275 -0.54833,-17.07748 -1.4835,-21.33153 -2.37185,-10.78945 -5.78647,-17.68819 -11.27562,-22.78074 -6.01374,-5.57922 -13.04632,-7.97837 -23.42524,-7.99144 -6.85352,-0.009 -9.24107,0.7664 -11.39155,3.69785 -1.20561,1.64346 -1.21431,2.01102 -1.21431,51.30293 v 49.64762 l 1.3244,2.12971 c 1.96476,3.15944 3.94868,3.74387 12.4541,3.66878 5.87627,-0.0519 8.0844,-0.3198 11.14006,-1.35171 12.13712,-4.09877 19.4218,-14.13805 22.55446,-31.08315 0.50256,-2.71842 0.97623,-5.00094 1.05261,-5.07226 0.14286,-0.13343 24.47148,-0.59677 24.47124,-0.46606 -10e-4,0.6463 -2.18772,5.86079 -3.83556,9.14712 -7.78182,15.51944 -22.15654,25.82078 -41.31115,29.60475 -5.52638,1.09173 -63.04768,1.78538 -64.49511,0.77775 z"
     id="path50" />
  <path
     style="fill:#800f2f;fill-opacity:1;stroke-width:0.586319"
     d="m 499.25081,335.76833 c -5.52168,-1.42576 -8.70514,-2.9366 -12.89902,-6.12178 -5.43571,-4.12833 -10.20932,-11.26006 -11.99652,-17.92267 -0.98213,-3.66133 -2.36656,-11.80678 -2.3675,-13.9294 l -8e-4,-1.81464 8.00801,-0.38406 c 8.14639,-0.39069 15.43772,-0.50274 15.45345,-0.23747 1.03232,17.40283 2.35152,25.2657 5.23329,31.19211 2.10974,4.33873 2.72446,5.11208 5.32213,6.69565 2.49866,1.5232 7.41705,1.6747 10.27899,0.31662 5.22054,-2.47731 8.82582,-11.7897 10.19419,-26.33142 0.36414,-3.86971 0.80158,-8.15717 0.97209,-9.52769 l 0.31003,-2.49185 h 11.71703 11.71702 l -0.29173,1.90553 c -0.16046,1.04805 -0.4468,3.53195 -0.63632,5.51979 -0.87207,9.14696 -4.85875,18.20458 -10.55831,23.98816 -4.08188,4.14206 -7.4397,6.23378 -13.35152,8.31722 -3.72669,1.31336 -5.36998,1.51723 -13.61916,1.68961 -7.61189,0.15907 -10.15515,-0.004 -13.48535,-0.86371 z"
     id="path51" />
  <path
     style="fill:#800f2f;fill-opacity:1;stroke-width:0.586319"
     d="m 472.08805,286.85668 c 1.43842,-12.86086 4.79448,-21.24236 11.00259,-27.47813 6.14354,-6.17092 12.93276,-9.10632 22.71644,-9.82173 14.9045,-1.08986 25.44419,1.83132 33.15951,9.19049 7.0061,6.68269 10.23492,14.64785 11.86995,29.28201 l 0.34392,3.07817 h -11.69157 -11.69156 l -0.32825,-2.78501 c -0.18054,-1.53176 -0.48427,-4.76385 -0.67495,-7.18241 -1.5331,-19.44575 -7.00056,-29.90228 -15.63516,-29.90228 -3.17163,0 -5.74729,1.55766 -8.46288,5.11804 -4.34297,5.69401 -6.00279,13.61911 -7.24766,34.60508 -0.005,0.0806 -5.36979,0.14658 -11.92225,0.14658 h -11.91357 z"
     id="path52" />
  <path
     style="fill:#800f2f;fill-opacity:1;stroke-width:0.586319"
     d="m 572.04116,288.02932 c -0.20335,-1.693 -0.37493,-7.95929 -0.38128,-13.92509 -0.006,-5.96579 -0.18177,-11.87752 -0.38983,-13.13717 -0.46097,-2.79088 -3.73737,-6.29871 -6.66827,-7.13928 -1.13049,-0.32422 -2.10571,-1.02225 -2.21404,-1.58473 -0.17694,-0.91879 0.69573,-1.00526 10.14424,-1.00526 5.68581,0 12.83043,-0.30633 15.87693,-0.68072 3.04651,-0.37439 5.71247,-0.50736 5.92435,-0.29547 0.21189,0.21189 0.5402,3.48296 0.72958,7.26905 l 0.34433,6.8838 1.97251,-3.07954 c 2.61816,-4.08755 6.56068,-7.50986 11.21967,-9.73926 3.77393,-1.80589 3.9025,-1.82366 13.19218,-1.82366 8.60432,0 9.60776,0.11165 12.11834,1.34839 3.1131,1.53354 7.22747,5.71555 8.41183,8.55012 1.12919,2.70254 1.92772,10.20446 2.3009,21.61614 l 0.32115,9.82085 h -11.04794 -11.04794 l -0.37855,-5.71661 c -0.20821,-3.14414 -0.37993,-8.96378 -0.3816,-12.93255 -0.004,-8.60944 -0.66935,-11.64466 -3.19492,-14.56631 -1.77135,-2.04915 -2.14332,-2.20498 -5.82266,-2.43926 -2.18787,-0.13932 -5.09259,0.0751 -6.55177,0.48366 -3.37551,0.94509 -7.17561,4.31103 -9.35382,8.28517 -1.67763,3.06083 -1.73131,3.42078 -2.12947,14.28004 -0.22466,6.12703 -0.43072,11.46987 -0.45793,11.87296 -0.0377,0.55867 -2.6784,0.7329 -11.10786,0.7329 h -11.0584 z"
     id="path53" />
  <path
     style="fill:#800f2f;fill-opacity:1;stroke-width:0.586319"
     d="m 561.82643,333.8041 c 0.27512,-0.82537 1.0789,-1.23762 4.50482,-2.31046 1.5162,-0.4748 3.09221,-1.49362 3.81108,-2.46368 1.1624,-1.56858 1.23469,-2.48526 1.39884,-17.73615 l 0.1731,-16.08208 h 11.69987 11.69987 v 15.59543 c 0,19.56701 -0.20543,18.94193 7.18241,21.85451 4.01468,1.58275 1.34235,1.83344 -19.54398,1.83344 -15.98051,0 -21.1,-0.16905 -20.92601,-0.69101 z"
     id="path54" />
  <path
     style="fill:#800f2f;fill-opacity:1;stroke-width:0.586319"
     d="m 613.42252,333.8041 c 0.24356,-0.73067 0.62777,-0.95984 4.0917,-2.44048 4.24901,-1.81622 4.22949,-1.68534 5.10552,-34.24636 l 0.0513,-1.90553 h 10.76524 10.76523 l 0.36974,3.07817 c 0.20335,1.693 0.37202,8.01226 0.37482,14.0428 0.007,15.90654 0.88196,18.59659 6.36751,19.58574 2.57064,0.46354 4.19134,1.24114 4.19134,2.01098 0,0.35293 -7.95734,0.56569 -21.15636,0.56569 -15.9805,0 -21.1,-0.16905 -20.92601,-0.69101 z"
     id="path55" />
  <path
     style="fill:#800f2f;fill-opacity:1;stroke-width:0.586319"
     d="m 680.13029,335.87298 c -5.4501,-0.82078 -8.95002,-2.21778 -11.65964,-4.65396 -3.97024,-3.56959 -5.56644,-7.39818 -5.60601,-13.44633 -0.0273,-4.16964 0.18861,-5.1485 1.90396,-8.63287 3.10212,-6.30131 8.00301,-9.54507 24.98862,-16.53932 5.13357,-2.11387 10.56747,-4.63507 12.07534,-5.60267 4.57347,-2.93478 4.81411,-3.81368 4.58609,-16.74951 -0.19628,-11.13543 -0.20445,-11.19593 -1.84727,-13.67638 -2.1625,-3.26512 -6.42115,-5.32043 -11.04056,-5.32843 -3.80207,-0.007 -10.53956,1.89119 -11.70665,3.29745 -0.68253,0.8224 -0.60421,1.08529 0.56717,1.90367 2.96942,2.07458 6.0664,5.04889 6.86486,6.59294 1.07726,2.08319 1.08792,8.30606 0.0177,10.36288 -2.8952,5.56448 -11.45623,7.82928 -17.09772,4.52315 -6.39771,-3.74931 -6.95041,-14.22844 -1.041,-19.73734 5.34061,-4.97866 13.31698,-7.90688 23.6065,-8.66622 6.84413,-0.50508 15.74241,-0.0202 19.23166,1.04803 6.24503,1.91184 11.52327,6.6465 13.72314,12.30986 1.24038,3.19323 1.30302,4.40171 1.76118,33.97676 0.35564,22.95763 0.66466,31.06337 1.22936,32.24756 0.99127,2.07869 3.65354,2.35981 6.85935,0.72433 2.33518,-1.19132 2.38843,-1.19315 2.38843,-0.0817 0,2.63602 -8.89035,5.9799 -16.07724,6.04704 -5.37285,0.0502 -8.64768,-0.69544 -11.53778,-2.62697 -2.01218,-1.34478 -4.30672,-5.18406 -4.92846,-8.24638 l -0.33728,-1.66128 -4.08519,3.85376 c -4.15701,3.92151 -8.98191,6.79739 -13.17913,7.8554 -2.94818,0.74315 -7.7513,1.19395 -9.65948,0.90658 z m 20.14291,-10.39247 c 1.06114,-0.44337 2.89957,-1.658 4.0854,-2.69917 l 2.15606,-1.89304 v -17.83698 -17.83697 l -3.72974,3.09315 c -2.05136,1.70123 -5.70708,4.59029 -8.12383,6.42012 -4.63688,3.5108 -7.62942,7.34976 -8.80569,11.29632 -0.39014,1.30898 -0.70595,4.75456 -0.7018,7.65684 0.009,6.13131 1.34594,9.51382 4.52803,11.45403 2.26127,1.37878 7.69465,1.55611 10.59157,0.3457 z"
     id="path56" />
  <path
     style="fill:#800f2f;fill-opacity:1;stroke-width:0.586319"
     d="m 755.04973,254.90228 c -0.15942,-35.2504 -0.19534,-36.25933 -1.36216,-38.25733 -1.20862,-2.06958 -3.89282,-3.78506 -6.86347,-4.38647 -1.10647,-0.224 -1.61237,-0.69085 -1.61237,-1.48789 0,-1.10991 0.42292,-1.16167 9.52768,-1.16592 8.72337,-0.004 14.81601,-0.43093 21.39492,-1.49895 l 2.48613,-0.4036 0.15231,28.07077 0.15231,28.07076 1.56302,-2.65861 c 3.18793,-5.42253 9.02548,-9.63438 15.88345,-11.46008 3.95238,-1.05218 13.91718,-1.05385 17.86445,-0.003 6.27423,1.67035 10.54916,5.77084 12.55749,12.04504 1.03759,3.24153 1.27428,5.81072 1.52819,16.58804 l 0.30044,12.75244 H 817.17964 805.73715 L 805.5122,277.1824 c -0.21677,-13.41842 -0.27788,-14.03175 -1.67966,-16.85668 -1.95019,-3.93015 -4.23981,-5.11129 -9.41134,-4.85502 -5.05006,0.25026 -8.91614,2.21638 -11.76443,5.9829 -3.47651,4.59725 -4.02485,7.20859 -4.02485,19.16746 v 10.48642 h -11.70923 -11.70923 z"
     id="path57" />
  <path
     style="fill:#800f2f;fill-opacity:1;stroke-width:0.586319"
     d="m 745.34434,333.8041 c 0.27513,-0.82537 1.07891,-1.23762 4.50483,-2.31046 1.5162,-0.4748 3.09221,-1.49362 3.81107,-2.46368 1.1624,-1.56858 1.2347,-2.48526 1.39885,-17.73615 l 0.17309,-16.08208 h 11.6659 11.6659 l 0.18055,16.37529 c 0.20772,18.83928 0.2087,18.84297 5.45094,20.52615 1.56932,0.50388 2.96033,1.24595 3.09114,1.64904 0.18729,0.5772 -4.26726,0.7329 -20.96739,0.7329 -16.01802,0 -21.14887,-0.16903 -20.97488,-0.69101 z"
     id="path58" />
  <path
     style="fill:#800f2f;fill-opacity:1;stroke-width:0.586319"
     d="m 796.94043,333.8041 c 0.24356,-0.73067 0.62778,-0.95984 4.09171,-2.44048 4.18232,-1.78772 4.41721,-3.34928 5.10721,-33.9532 l 0.0496,-2.19869 h 10.76523 10.76524 l 0.36973,3.07817 c 0.20335,1.693 0.37203,8.01226 0.37483,14.0428 0.007,15.90654 0.88195,18.59659 6.36751,19.58574 2.57064,0.46354 4.19133,1.24114 4.19133,2.01098 0,0.35293 -7.95733,0.56569 -21.15635,0.56569 -15.98051,0 -21.1,-0.16905 -20.92602,-0.69101 z"
     id="path59" />
</svg>
